<svg width="35" height="25" viewBox="0 0 35 25" fill="none" xmlns="http://www.w3.org/2000/svg">
<path fill-rule="evenodd" clip-rule="evenodd" d="M14.3972 0C13.2188 0 12.1495 0.689939 11.6638 1.76366L11.1469 2.90652C11.0476 3.12605 10.977 3.34881 10.933 3.57141H4C1.79086 3.57141 0 5.36227 0 7.57141V21C0 23.2091 1.79086 25 4 25H30.6154C32.8245 25 34.6154 23.2091 34.6154 21V7.57141C34.6154 5.36227 32.8245 3.57141 30.6154 3.57141H23.6824C23.6384 3.34881 23.5678 3.12605 23.4685 2.90652L22.9516 1.76366C22.4659 0.68994 21.3966 0 20.2182 0H14.3972ZM17.3077 19.4285C19.9682 19.4285 22.2308 17.1854 22.2308 14.2857C22.2308 11.386 19.9682 9.14282 17.3077 9.14282C14.6472 9.14282 12.3846 11.386 12.3846 14.2857C12.3846 17.1854 14.6472 19.4285 17.3077 19.4285ZM17.3077 21.4285C21.1312 21.4285 24.2308 18.2306 24.2308 14.2857C24.2308 10.3408 21.1312 7.14282 17.3077 7.14282C13.4842 7.14282 10.3846 10.3408 10.3846 14.2857C10.3846 18.2306 13.4842 21.4285 17.3077 21.4285ZM28.8461 8.33335C29.4834 8.33335 30 7.80035 30 7.14287C30 6.48539 29.4834 5.95239 28.8461 5.95239C28.2089 5.95239 27.6923 6.48539 27.6923 7.14287C27.6923 7.80035 28.2089 8.33335 28.8461 8.33335Z" fill="white"/>
</svg>
