<svg width="109" height="45" viewBox="0 0 109 45" fill="none" xmlns="http://www.w3.org/2000/svg">
<circle cx="101" cy="10" r="8" fill="#FF5288"/>
<path d="M100 7L103 10L100 13" stroke="white" stroke-width="1.5" stroke-linecap="round" stroke-linejoin="round"/>
<path d="M8.96012 44.936C7.95746 44.936 6.98679 44.936 6.04812 44.936C5.13079 44.936 4.29879 44.872 3.55212 44.744C2.82679 44.5947 2.25079 44.3173 1.82412 43.912C1.39746 43.5067 1.18412 42.9093 1.18412 42.12C1.18412 41.288 1.40812 40.6587 1.85612 40.232C2.32546 39.784 2.94412 39.4747 3.71212 39.304C4.50146 39.1333 5.38679 39.0267 6.36812 38.984C6.36812 37.64 6.35746 36.488 6.33612 35.528C6.31479 34.5467 6.29346 33.64 6.27212 32.808C6.27212 31.9547 6.27212 31.0693 6.27212 30.152C5.69612 30.2373 5.08812 30.2587 4.44812 30.216C3.80812 30.1733 3.21079 30.056 2.65612 29.864C2.12279 29.6507 1.67479 29.3413 1.31212 28.936C0.970789 28.5093 0.800122 27.9653 0.800122 27.304C0.800122 26.472 1.14146 25.704 1.82412 25C2.52812 24.2747 3.45612 23.6987 4.60812 23.272C5.76012 22.824 6.99746 22.6 8.32012 22.6C9.64279 22.6 10.7201 23.0053 11.5521 23.816C12.3841 24.6053 12.8001 25.7787 12.8001 27.336V39.08C13.9521 39.1867 14.8908 39.4533 15.6161 39.88C16.3628 40.3067 16.7361 41.0533 16.7361 42.12C16.7361 42.9093 16.5228 43.5067 16.0961 43.912C15.6695 44.3173 15.0828 44.5947 14.3361 44.744C13.6108 44.872 12.7788 44.936 11.8401 44.936C10.9228 44.936 9.96279 44.936 8.96012 44.936ZM27.7074 45C26.278 45 24.9874 44.712 23.8354 44.136C22.6834 43.56 21.6914 42.76 20.8594 41.736C20.0487 40.6907 19.4194 39.496 18.9714 38.152C18.5447 36.7867 18.3314 35.336 18.3314 33.8C18.3314 32.3493 18.5447 30.9627 18.9714 29.64C19.398 28.296 20.0167 27.1013 20.8274 26.056C21.6594 24.9893 22.6514 24.1467 23.8034 23.528C24.9554 22.9093 26.2567 22.6 27.7074 22.6C29.606 22.6 31.2594 23.1013 32.6674 24.104C34.0754 25.0853 35.1634 26.4187 35.9314 28.104C36.7207 29.7893 37.1154 31.688 37.1154 33.8C37.1154 35.208 36.8914 36.584 36.4434 37.928C36.0167 39.2507 35.3874 40.4453 34.5554 41.512C33.7447 42.5787 32.7634 43.432 31.6114 44.072C30.4594 44.6907 29.158 45 27.7074 45ZM27.7074 39.016C28.5394 39.016 29.2007 38.7813 29.6914 38.312C30.2034 37.8427 30.5767 37.2347 30.8114 36.488C31.046 35.7413 31.1634 34.952 31.1634 34.12C31.1634 33.288 31.046 32.5093 30.8114 31.784C30.598 31.0373 30.2354 30.44 29.7234 29.992C29.2114 29.5227 28.5394 29.288 27.7074 29.288C26.8754 29.288 26.2034 29.5227 25.6914 29.992C25.2007 30.44 24.838 31.0373 24.6034 31.784C24.3687 32.5093 24.2514 33.288 24.2514 34.12C24.2514 34.7813 24.358 35.496 24.5714 36.264C24.806 37.0107 25.1687 37.6613 25.6594 38.216C26.1714 38.7493 26.854 39.016 27.7074 39.016ZM48.0824 45C46.653 45 45.3624 44.712 44.2104 44.136C43.0584 43.56 42.0664 42.76 41.2344 41.736C40.4237 40.6907 39.7944 39.496 39.3464 38.152C38.9197 36.7867 38.7064 35.336 38.7064 33.8C38.7064 32.3493 38.9197 30.9627 39.3464 29.64C39.773 28.296 40.3917 27.1013 41.2024 26.056C42.0344 24.9893 43.0264 24.1467 44.1784 23.528C45.3304 22.9093 46.6317 22.6 48.0824 22.6C49.981 22.6 51.6344 23.1013 53.0424 24.104C54.4504 25.0853 55.5384 26.4187 56.3064 28.104C57.0957 29.7893 57.4904 31.688 57.4904 33.8C57.4904 35.208 57.2664 36.584 56.8184 37.928C56.3917 39.2507 55.7624 40.4453 54.9304 41.512C54.1197 42.5787 53.1384 43.432 51.9864 44.072C50.8344 44.6907 49.533 45 48.0824 45ZM48.0824 39.016C48.9144 39.016 49.5757 38.7813 50.0664 38.312C50.5784 37.8427 50.9517 37.2347 51.1864 36.488C51.421 35.7413 51.5384 34.952 51.5384 34.12C51.5384 33.288 51.421 32.5093 51.1864 31.784C50.973 31.0373 50.6104 30.44 50.0984 29.992C49.5864 29.5227 48.9144 29.288 48.0824 29.288C47.2504 29.288 46.5784 29.5227 46.0664 29.992C45.5757 30.44 45.213 31.0373 44.9784 31.784C44.7437 32.5093 44.6264 33.288 44.6264 34.12C44.6264 34.7813 44.733 35.496 44.9464 36.264C45.181 37.0107 45.5437 37.6613 46.0344 38.216C46.5464 38.7493 47.229 39.016 48.0824 39.016ZM70.0574 44.936C68.0307 44.936 66.1854 44.5307 64.5214 43.72C62.8574 42.888 61.5347 41.64 60.5534 39.976C59.572 38.312 59.0814 36.232 59.0814 33.736C59.0814 32.264 59.3374 30.8667 59.8494 29.544C60.3614 28.2 61.076 27.0053 61.9934 25.96C62.932 24.9147 64.0307 24.0933 65.2894 23.496C66.548 22.8987 67.9347 22.6 69.4494 22.6C71.348 22.6 73.012 22.952 74.4414 23.656C75.8707 24.3387 76.98 25.2773 77.7694 26.472C78.58 27.6667 78.9854 29 78.9854 30.472C78.9854 31.048 78.868 31.6027 78.6334 32.136C78.42 32.648 78.0787 33.0747 77.6094 33.416C77.1614 33.7573 76.5747 33.928 75.8494 33.928C75.1667 33.928 74.6227 33.8213 74.2174 33.608C73.8334 33.3947 73.5027 33.1387 73.2254 32.84C72.9694 32.52 72.7027 32.2 72.4254 31.88C72.148 31.56 71.8067 31.2933 71.4014 31.08C70.996 30.8667 70.4414 30.76 69.7374 30.76C69.076 30.76 68.468 30.9307 67.9134 31.272C67.3587 31.6133 66.9107 32.0827 66.5694 32.68C66.2494 33.256 66.0894 33.9173 66.0894 34.664C66.0894 35.7733 66.3774 36.744 66.9534 37.576C67.5507 38.408 68.3934 38.824 69.4814 38.824C70.3347 38.824 71.0067 38.696 71.4974 38.44C72.0094 38.184 72.436 37.896 72.7774 37.576C73.14 37.2347 73.524 36.936 73.9294 36.68C74.356 36.424 74.9 36.296 75.5614 36.296C76.5 36.296 77.204 36.6053 77.6734 37.224C78.164 37.8427 78.3667 38.6 78.2814 39.496C78.196 40.4133 77.7907 41.288 77.0654 42.12C76.3614 42.952 75.4014 43.6347 74.1854 44.168C72.9907 44.68 71.6147 44.936 70.0574 44.936Z" fill="#FF5288"/>
<path d="M11.5781 14.174H0.532122V13.278H3.30412V9.05H4.36812V13.278H6.39812V9.05H7.46212V13.278H11.5781V14.174ZM10.2201 5.102V6.558C10.2015 8.77 10.0428 10.5433 9.74412 11.878L8.68012 11.71C8.96946 10.5247 9.11412 8.98933 9.11412 7.104V5.998H1.69412V5.102H10.2201ZM20.3314 11.794C19.3701 11.9153 18.0634 12.032 16.4114 12.144C15.0394 12.228 13.7887 12.27 12.6594 12.27L12.4774 11.374C13.8961 11.374 15.0161 11.36 15.8374 11.332V10.478C15.1467 10.4127 14.5914 10.2353 14.1714 9.946C13.7514 9.65667 13.5414 9.26 13.5414 8.756C13.5414 8.17733 13.8121 7.734 14.3534 7.426C14.9041 7.118 15.5901 6.964 16.4114 6.964C17.2514 6.964 17.9421 7.118 18.4834 7.426C19.0341 7.72467 19.3094 8.16333 19.3094 8.742C19.3094 9.25533 19.0901 9.66133 18.6514 9.96C18.2127 10.2493 17.6341 10.422 16.9154 10.478V11.276C18.4834 11.1733 19.6034 11.0707 20.2754 10.968L20.3314 11.794ZM23.9994 9.022H22.0814V13.264H21.0034V3.716H22.0814V8.126H23.9994V9.022ZM22.3894 15.77H14.3254V12.732H15.3894V14.888H22.3894V15.77ZM19.9254 6.558H12.8134V5.69H19.9254V6.558ZM17.7834 9.428C18.1381 9.26933 18.3154 9.04067 18.3154 8.742C18.3154 8.44333 18.1381 8.21467 17.7834 8.056C17.4381 7.89733 16.9807 7.818 16.4114 7.818C15.8514 7.818 15.3987 7.89733 15.0534 8.056C14.7174 8.21467 14.5494 8.44333 14.5494 8.742C14.5494 9.04067 14.7174 9.26933 15.0534 9.428C15.3987 9.58667 15.8514 9.666 16.4114 9.666C16.9714 9.666 17.4287 9.58667 17.7834 9.428ZM18.1334 4.948H14.7594V4.052H18.1334V4.948ZM35.3707 9.792L34.7827 10.646C33.7374 10.3473 32.79 9.86667 31.9407 9.204C31.0914 8.532 30.5314 7.846 30.2607 7.146C30.0274 7.85533 29.486 8.546 28.6367 9.218C27.7874 9.88067 26.8307 10.3567 25.7667 10.646L25.2067 9.792C25.9347 9.652 26.6394 9.386 27.3207 8.994C28.002 8.59267 28.5714 8.084 29.0287 7.468C29.4954 6.852 29.7287 6.208 29.7287 5.536V4.654H30.8347V5.536C30.8347 6.04 30.9747 6.53933 31.2547 7.034C31.5347 7.51933 31.8987 7.944 32.3467 8.308C32.7947 8.672 33.28 8.98467 33.8027 9.246C34.3347 9.50733 34.8574 9.68933 35.3707 9.792ZM35.8047 14.426H24.7587V13.53H29.7287V10.394H30.7927V13.53H35.8047V14.426ZM51.9457 9.512H49.9577V15.98H48.8937V3.744H49.9577V8.602H51.9457V9.512ZM46.7097 12.942H40.9557V4.78H42.0197V7.888H45.6317V4.78H46.7097V12.942ZM45.6317 12.046V8.77H42.0197V12.046H45.6317ZM63.709 14.426H52.663V13.53H57.633V11.444H54.021V7.622H61.273V5.662H54.007V4.766H62.337V8.504H55.085V10.548H62.687V11.444H58.697V13.53H63.709V14.426ZM74.1843 3.744V8.84H76.1863V9.75H74.1843V15.98H73.1203V3.744H74.1843ZM71.0063 5.06C70.9689 6.964 70.4556 8.63933 69.4663 10.086C68.4769 11.5327 67.1516 12.6853 65.4903 13.544L64.8323 12.704C66.3256 12.0133 67.5063 11.0707 68.3743 9.876C69.2516 8.672 69.7463 7.36533 69.8583 5.956H65.2523V5.06H71.0063ZM86.8855 15.98H85.8215V3.744H86.8855V15.98ZM83.2875 5.046C83.2595 6.95933 82.7229 8.66267 81.6775 10.156C80.6415 11.64 79.2929 12.774 77.6315 13.558L77.0155 12.718C78.5275 12.0553 79.7315 11.1173 80.6275 9.904C81.5329 8.68133 82.0415 7.36067 82.1535 5.942H77.4635V5.046H83.2875Z" fill="#FF5288"/>
</svg>
