<svg width="18" height="21" viewBox="0 0 18 21" fill="none" xmlns="http://www.w3.org/2000/svg">
<path d="M9.00001 20.9998C9.67228 21.0089 10.3206 20.7507 10.8026 20.2819C11.2845 19.8131 11.5605 19.1721 11.57 18.4998H6.43001C6.43949 19.1721 6.71554 19.8131 7.19746 20.2819C7.67939 20.7507 8.32775 21.0089 9.00001 20.9998ZM17.654 15.1518C16.878 14.3408 15.425 13.1208 15.425 9.12484C15.4105 7.67344 14.8887 6.27286 13.9499 5.16585C13.0111 4.05885 11.7146 3.31522 10.285 3.06384V2.24984C10.285 1.90904 10.1496 1.5822 9.90864 1.34121C9.66766 1.10023 9.34081 0.964844 9.00001 0.964844C8.65921 0.964844 8.33236 1.10023 8.09138 1.34121C7.85039 1.5822 7.71501 1.90904 7.71501 2.24984V3.06384C6.28547 3.31522 4.98894 4.05885 4.05015 5.16585C3.11137 6.27286 2.5895 7.67344 2.57501 9.12484C2.57501 13.1248 1.12301 14.3408 0.34601 15.1518C0.123101 15.3777 -0.00130352 15.6825 1.03015e-05 15.9998C0.00248518 16.1667 0.0378326 16.3314 0.10403 16.4845C0.170227 16.6377 0.265974 16.7763 0.385793 16.8924C0.505611 17.0085 0.647148 17.0998 0.802305 17.1611C0.957461 17.2225 1.12319 17.2526 1.29001 17.2498H16.71C16.8768 17.2526 17.0426 17.2225 17.1977 17.1611C17.3529 17.0998 17.4944 17.0085 17.6142 16.8924C17.734 16.7763 17.8298 16.6377 17.896 16.4845C17.9622 16.3314 17.9975 16.1667 18 15.9998C18.0013 15.6825 17.8769 15.3777 17.654 15.1518Z" fill="#333333"/>
<path d="M14 8C16.2091 8 18 6.20914 18 4C18 1.79086 16.2091 0 14 0C11.7909 0 10 1.79086 10 4C10 6.20914 11.7909 8 14 8Z" fill="#FF5288"/>
</svg>
