<svg width="24" height="24" viewBox="0 0 24 24" fill="none" xmlns="http://www.w3.org/2000/svg">
<g clip-path="url(#clip0_1342_777)">
<path d="M19.9195 11.7598H14.2095C13.6495 11.7598 13.1895 12.3898 13.1895 13.1598V16.0198C13.1895 16.7898 13.6495 17.4198 14.2095 17.4198H17.8395L20.2095 18.8198V17.4198H19.9195C20.4795 17.4198 20.9395 16.7898 20.9395 16.0198V13.1598C20.9395 12.3898 20.4795 11.7598 19.9195 11.7598Z" fill="#595757" stroke="#595757" stroke-linejoin="round"/>
<path d="M14.3805 9.62969H15.3705V7.49969C15.3705 6.21969 14.6405 5.17969 13.7505 5.17969H4.68055C3.78055 5.17969 3.06055 6.21969 3.06055 7.49969V12.2497C3.06055 13.5297 3.79055 14.5697 4.68055 14.5697H4.22055V16.8897L7.98055 14.5697H11.0205V13.9797C10.9405 10.9597 12.1905 9.55969 14.3805 9.61969V9.62969Z" fill="#595757" stroke="#595757" stroke-linecap="round" stroke-linejoin="round"/>
</g>
<defs>
<clipPath id="clip0_1342_777">
<rect width="24" height="24" fill="white"/>
</clipPath>
</defs>
</svg>
