<svg width="24" height="24" viewBox="0 0 24 24" fill="none" xmlns="http://www.w3.org/2000/svg">
<path d="M21.1882 23.7004L16.7845 19.3043C16.4488 18.969 15.9282 18.9086 15.5261 19.1603C14.9359 19.53 14.2882 19.8345 13.5833 20.0735C12.6065 20.4046 11.5384 20.5702 10.3792 20.5702C7.45047 20.5702 4.9884 19.5708 2.99308 17.5721C0.99776 15.5734 0 13.1419 0 10.2773C0 7.41282 0.999472 4.98378 2.99842 2.99031C4.99736 0.996735 7.42922 0 10.2941 0C13.1589 0 15.5883 0.998548 17.582 2.99574C19.5758 4.99294 20.5726 7.4246 20.5726 10.2907C20.5726 11.4552 20.4076 12.5134 20.0774 13.4657C19.8297 14.18 19.4964 14.8693 19.0773 15.5334C18.8236 15.9356 18.9075 16.4651 19.2449 16.8L23.6973 21.1855C24.0999 21.5851 24.1011 22.2357 23.7 22.6368L22.6367 23.7C22.2367 24.0999 21.5882 24.1001 21.1882 23.7004ZM10.303 17.1037C12.2329 17.1037 13.8492 16.4493 15.1517 15.1404C16.4544 13.8314 17.1057 12.2182 17.1057 10.3008C17.1057 8.38337 16.4536 6.76495 15.1495 5.44554C13.8455 4.12622 12.2311 3.46647 10.3064 3.46647C8.3605 3.46647 6.73413 4.12612 5.42715 5.44554C4.12017 6.76495 3.46668 8.38337 3.46668 10.3008C3.46668 12.2182 4.11825 13.8314 5.42151 15.1404C6.72476 16.4493 8.35204 17.1037 10.303 17.1037Z" fill="#FF5B79"/>
</svg>
