<svg width="20" height="23" viewBox="0 0 20 23" fill="none" xmlns="http://www.w3.org/2000/svg">
<path d="M6.9231 22.2183H1.99903C1.4686 22.2183 0.959799 22.0074 0.584726 21.6323C0.209653 21.2573 -0.000967339 20.7487 -0.000967339 20.2183V7.53125C-0.00189404 7.2266 0.0670201 6.92562 0.200693 6.65186C0.334366 6.3781 0.529224 6.13877 0.770029 5.95215C0.837382 5.89198 0.908419 5.83621 0.982919 5.78516L8.86402 0.352053C9.19772 0.120958 9.5941 -0.0025693 10 -0.00195041C10.4056 -0.00262113 10.8017 0.12092 11.135 0.352053L19.0171 5.78516C19.0917 5.83602 19.1628 5.8918 19.23 5.95215C19.4707 6.13856 19.6653 6.37775 19.7988 6.65137C19.9324 6.92499 20.0012 7.22583 20 7.53028V20.2173C20 20.7477 19.7894 21.2563 19.4143 21.6313C19.0392 22.0064 18.5304 22.2173 18 22.2173H13.0759V18.8965C13.0754 18.0807 12.7513 17.2983 12.1746 16.7212C11.5979 16.1441 10.8158 15.8194 10 15.8184C9.18409 15.8194 8.40181 16.1442 7.82496 16.7212C7.24811 17.2982 6.9239 18.0806 6.9231 18.8965V22.2183Z" fill="white"/>
</svg>
