<svg width="22" height="24" viewBox="0 0 22 24" fill="none" xmlns="http://www.w3.org/2000/svg">
<path d="M6.94977 23.9967C6.2949 24.0316 5.74645 23.7877 5.29623 23.2651C4.98517 22.8992 4.7969 22.4202 4.77234 21.9237C4.73959 21.2269 4.9688 20.6433 5.45995 20.1642C5.80375 19.8332 6.25397 19.6329 6.72057 19.6068C7.37543 19.5719 7.92388 19.8158 8.3741 20.3384C8.68516 20.7043 8.87344 21.1833 8.898 21.6798C8.93074 22.3766 8.70154 22.9602 8.21039 23.4393C7.86658 23.7703 7.41636 23.9706 6.94977 23.9967ZM17.7714 23.9967C17.1984 23.9967 16.7073 23.779 16.3144 23.3522C15.9214 22.9254 15.725 22.4028 15.725 21.8018C15.725 21.2007 15.9378 20.6607 16.3225 20.2513C16.7073 19.8419 17.1984 19.6068 17.7633 19.6068C18.3281 19.6068 18.8356 19.8245 19.2285 20.2513C19.6214 20.6781 19.8179 21.2007 19.8179 21.8018C19.8179 22.4028 19.6051 22.9341 19.2367 23.3435C18.8356 23.779 18.3444 23.9967 17.7714 23.9967ZM4.73141 1.91625C4.83783 2.16014 5.06703 2.30822 5.32079 2.30822H20.1944C20.8493 2.30822 21.3568 2.6305 21.717 3.26634C22.0772 3.9109 22.0936 4.56417 21.7661 5.22615L18.5082 11.4975C18.279 11.9156 17.9843 12.264 17.6077 12.5253C17.2312 12.7954 16.8137 12.926 16.3471 12.926H8.70972C8.47233 12.926 8.25132 13.0654 8.13671 13.2918L7.63738 14.3109C7.40818 14.7726 7.72742 15.3213 8.21039 15.3213H19.5314C19.8916 15.3213 20.1781 15.6262 20.1781 16.0094V17.316C20.1781 17.6992 19.8916 18.0041 19.5314 18.0041H6.66326C5.71371 18.0041 5.0261 17.6295 4.60044 16.8805C4.17477 16.1314 4.18296 15.3475 4.60862 14.5113L6.02477 11.8024C6.123 11.6108 6.13119 11.3756 6.04933 11.1752L2.48031 3.07472C2.37389 2.83083 2.14469 2.68276 1.89093 2.68276H0.64668C0.286504 2.68276 0 2.3779 0 1.99465V0.68811C0 0.304859 0.286504 0 0.64668 0H3.48716C3.74092 0 3.97013 0.156785 4.07654 0.391961L4.74778 1.89883L4.73141 1.91625Z" fill="#FF5B79"/>
</svg>
