<svg width="47" height="47" viewBox="0 0 47 47" fill="none" xmlns="http://www.w3.org/2000/svg">
<circle cx="23.5" cy="23.5" r="23.5" fill="#FF5B79"/>
<path d="M31.4452 12.8427C30.6938 12.5761 27.7509 14.4801 26.2465 18.5092C25.6962 19.9818 25.4163 21.533 25.3165 22.9225C24.8386 22.8661 24.3704 22.8394 23.9279 22.8394C23.4854 22.8394 23.014 22.8645 22.5361 22.9225C22.4364 21.533 22.1564 19.9803 21.6061 18.5092C20.1017 14.4801 17.1604 12.5761 16.4074 12.8427C15.656 13.1093 14.6584 16.4107 16.1628 20.4398C16.734 21.9705 17.5852 23.3868 18.4621 24.5395C17.1186 25.6593 16.2127 27.3421 16.2127 29.4312C16.2127 33.9026 20.6101 34.1818 23.9279 34.1818C27.2457 34.1818 31.6431 33.9026 31.6431 29.4312C31.6431 27.3406 30.7373 25.6562 29.3921 24.5379C30.269 23.3852 31.1186 21.9705 31.6898 20.4398C33.1942 16.4107 32.1966 13.1093 31.4452 12.8427Z" fill="white"/>
</svg>
