<svg width="23" height="7" viewBox="0 0 23 7" fill="none" xmlns="http://www.w3.org/2000/svg">
<path d="M3.25 5.5C4.49264 5.5 5.5 4.49264 5.5 3.25C5.5 2.00736 4.49264 1 3.25 1C2.00736 1 1 2.00736 1 3.25C1 4.49264 2.00736 5.5 3.25 5.5Z" stroke="#DDDDDD" stroke-width="1.5"/>
<path d="M11.25 5.5C12.4926 5.5 13.5 4.49264 13.5 3.25C13.5 2.00736 12.4926 1 11.25 1C10.0074 1 9 2.00736 9 3.25C9 4.49264 10.0074 5.5 11.25 5.5Z" stroke="#DDDDDD" stroke-width="1.5"/>
<path d="M19.25 5.5C20.4926 5.5 21.5 4.49264 21.5 3.25C21.5 2.00736 20.4926 1 19.25 1C18.0074 1 17 2.00736 17 3.25C17 4.49264 18.0074 5.5 19.25 5.5Z" stroke="#DDDDDD" stroke-width="1.5"/>
</svg>
