<svg width="24" height="22" viewBox="0 0 24 22" fill="none" xmlns="http://www.w3.org/2000/svg">
<path d="M20.865 2.81614C19.7045 1.87649 18.2298 1.4139 16.7405 1.52237C15.2513 1.63084 13.8591 2.30224 12.847 3.40014L12.001 4.27314L11.155 3.40114C10.1429 2.30324 8.75083 1.63184 7.26154 1.52337C5.77226 1.4149 4.29755 1.87749 3.13704 2.81714C2.50375 3.36399 1.98831 4.03393 1.62204 4.78622C1.25578 5.53852 1.04636 6.35745 1.00651 7.19322C0.966665 8.02899 1.09723 8.86413 1.39025 9.64786C1.68328 10.4316 2.13265 11.1475 2.71104 11.7521L11.025 20.3371C11.1508 20.4685 11.3018 20.573 11.469 20.6444C11.6363 20.7158 11.8162 20.7526 11.998 20.7526C12.1799 20.7526 12.3598 20.7158 12.527 20.6444C12.6943 20.573 12.8453 20.4685 12.971 20.3371L21.286 11.7521C21.8649 11.1482 22.3149 10.4327 22.6085 9.64929C22.9021 8.86588 23.0331 8.03092 22.9938 7.19524C22.9544 6.35956 22.7453 5.54063 22.3794 4.78831C22.0134 4.03598 21.4982 3.366 20.865 2.81914V2.81614Z" stroke="#DDDDDD" stroke-width="2"/>
</svg>
