<svg width="24" height="24" viewBox="0 0 24 24" fill="none" xmlns="http://www.w3.org/2000/svg">
<path d="M23.1959 16.887C22.6599 16.0827 21.9651 15.4715 21.1115 15.0534C19.5147 14.2647 17.9681 13.6856 16.4716 13.3158C14.9946 12.9509 13.5137 12.7677 12.029 12.763V12.7612C12.0193 12.7612 12.0097 12.7621 12 12.7621C11.9902 12.7621 11.9806 12.7612 11.9709 12.7612V12.763C10.4862 12.7677 9.00532 12.9509 7.52826 13.3158C6.03189 13.6855 4.48523 14.2647 2.88838 15.0534C2.03494 15.4715 1.34011 16.0827 0.804107 16.887C0.268004 17.6911 0 18.6352 0 19.7192V21.5261C0 22.8925 1.05535 24.0001 2.3572 24.0001H21.6428C22.9447 24.0001 24 22.8925 24 21.5261V19.7192C24 18.6352 23.732 17.6911 23.1959 16.887Z" fill="#FF5B79"/>
<path d="M11.9676 11.1815C14.9095 11.1815 17.2945 8.67842 17.2945 5.59074C17.2945 2.50306 14.9095 0 11.9676 0C9.02557 0 6.64062 2.50306 6.64062 5.59074C6.64062 8.67842 9.02557 11.1815 11.9676 11.1815Z" fill="#FF5B79"/>
</svg>
