<svg width="24" height="24" viewBox="0 0 24 24" fill="none" xmlns="http://www.w3.org/2000/svg">
<path d="M0 21.9121V8.7039C0 8.04778 0.339709 7.42986 0.917203 7.03541L10.6026 0.419551C11.4201 -0.138908 12.5458 -0.139935 13.3646 0.416984L23.0792 7.02493C23.6588 7.41918 24 8.03833 24 8.69589V21.912C24 23.0652 22.9702 24 21.7 24H17.2606C15.9903 24 14.9605 23.0652 14.9605 21.912V18.7487C14.9605 17.5955 13.9308 16.6607 12.6605 16.6607H11.3044C10.0341 16.6607 9.00438 17.5955 9.00438 18.7487V21.912C9.00438 23.0652 7.97462 24 6.70436 24H2.30002C1.02976 24 0 23.0653 0 21.9121Z" fill="#FF5B79"/>
</svg>
