<svg width="22" height="23" viewBox="0 0 22 23" fill="none" xmlns="http://www.w3.org/2000/svg">
<path d="M8 12.002H14C15.8565 12.002 17.637 12.7395 18.9497 14.0522C20.2625 15.365 21 17.1454 21 19.002C21 19.7976 20.6839 20.5607 20.1213 21.1233C19.5587 21.6859 18.7956 22.002 18 22.002H4C3.20435 22.002 2.44129 21.6859 1.87868 21.1233C1.31607 20.5607 1 19.7976 1 19.002C1 17.1454 1.7375 15.365 3.05025 14.0522C4.36301 12.7395 6.14348 12.002 8 12.002Z" stroke="#DDDDDD" stroke-width="2"/>
<path d="M15 5.00195C15 2.79281 13.2091 1.00195 11 1.00195C8.79086 1.00195 7 2.79281 7 5.00195C7 7.21109 8.79086 9.00195 11 9.00195C13.2091 9.00195 15 7.21109 15 5.00195Z" stroke="#DDDDDD" stroke-width="2"/>
</svg>
