<svg width="131" height="30" viewBox="0 0 131 30" fill="none" xmlns="http://www.w3.org/2000/svg">
<path d="M11.9166 23.936C9.88996 23.936 8.04463 23.5307 6.38063 22.72C4.71663 21.888 3.39396 20.64 2.41263 18.976C1.43129 17.312 0.940625 15.232 0.940625 12.736C0.940625 11.264 1.19663 9.86667 1.70863 8.544C2.22063 7.2 2.93529 6.00533 3.85263 4.96C4.79129 3.91467 5.88996 3.09333 7.14863 2.496C8.40729 1.89867 9.79396 1.6 11.3086 1.6C13.2073 1.6 14.8713 1.952 16.3006 2.656C17.73 3.33867 18.8393 4.27733 19.6286 5.472C20.4393 6.66667 20.8446 8 20.8446 9.472C20.8446 10.048 20.7273 10.6027 20.4926 11.136C20.2793 11.648 19.938 12.0747 19.4686 12.416C19.0206 12.7573 18.434 12.928 17.7086 12.928C17.026 12.928 16.482 12.8213 16.0766 12.608C15.6926 12.3947 15.362 12.1387 15.0846 11.84C14.8286 11.52 14.562 11.2 14.2846 10.88C14.0073 10.56 13.666 10.2933 13.2606 10.08C12.8553 9.86667 12.3006 9.76 11.5966 9.76C10.9353 9.76 10.3273 9.93067 9.77263 10.272C9.21796 10.6133 8.76996 11.0827 8.42863 11.68C8.10863 12.256 7.94863 12.9173 7.94863 13.664C7.94863 14.7733 8.23663 15.744 8.81263 16.576C9.40996 17.408 10.2526 17.824 11.3406 17.824C12.194 17.824 12.866 17.696 13.3566 17.44C13.8686 17.184 14.2953 16.896 14.6366 16.576C14.9993 16.2347 15.3833 15.936 15.7886 15.68C16.2153 15.424 16.7593 15.296 17.4206 15.296C18.3593 15.296 19.0633 15.6053 19.5326 16.224C20.0233 16.8427 20.226 17.6 20.1406 18.496C20.0553 19.4133 19.65 20.288 18.9246 21.12C18.2206 21.952 17.2606 22.6347 16.0446 23.168C14.85 23.68 13.474 23.936 11.9166 23.936ZM25.6556 24C24.589 24 23.7783 23.584 23.2236 22.752C22.669 21.92 22.2956 20.6293 22.1036 18.88C21.9116 17.1093 21.8156 14.8267 21.8156 12.032C21.8156 9.94133 21.869 8.11733 21.9756 6.56C22.1036 5.00267 22.4236 3.78667 22.9356 2.912C23.4476 2.03733 24.269 1.6 25.3996 1.6C26.2743 1.6 26.9356 1.84533 27.3836 2.336C27.8316 2.80533 28.1303 3.43467 28.2796 4.224C28.4503 4.992 28.5463 5.84533 28.5676 6.784C28.589 7.70133 28.5996 8.61867 28.5996 9.536C28.9623 9.36533 29.3036 9.22667 29.6236 9.12C29.965 9.01333 30.4983 8.96 31.2236 8.96C32.7383 8.96 34.0076 9.33333 35.0316 10.08C36.0556 10.8267 36.8343 11.8187 37.3676 13.056C37.901 14.2933 38.1676 15.6587 38.1676 17.152C38.1676 17.92 38.1356 18.6987 38.0716 19.488C38.0076 20.2773 37.869 21.0027 37.6556 21.664C37.4423 22.3253 37.133 22.8693 36.7276 23.296C36.3223 23.7013 35.7783 23.904 35.0956 23.904C34.221 23.904 33.5703 23.712 33.1436 23.328C32.7383 22.9227 32.4823 22.3573 32.3756 21.632C32.269 20.8853 32.2156 20.0213 32.2156 19.04C32.2156 17.9093 32.0876 16.9707 31.8316 16.224C31.597 15.4773 31.1276 15.104 30.4236 15.104C29.7196 15.104 29.229 15.4773 28.9516 16.224C28.6956 16.9707 28.557 17.9093 28.5356 19.04C28.5356 20.0213 28.4716 20.8853 28.3436 21.632C28.237 22.3787 27.981 22.9653 27.5756 23.392C27.1703 23.7973 26.5303 24 25.6556 24ZM47.1281 24.032C45.5495 24.0533 44.1628 23.7333 42.9681 23.072C41.7948 22.3893 40.8668 21.472 40.1841 20.32C39.5228 19.1467 39.1708 17.856 39.1281 16.448C39.1068 14.9973 39.4375 13.7173 40.1201 12.608C40.8028 11.4773 41.7521 10.5813 42.9681 9.92C44.1841 9.25867 45.5708 8.928 47.1281 8.928C48.6641 8.90667 50.0188 9.22667 51.1921 9.888C52.3868 10.5493 53.3361 11.4453 54.0401 12.576C54.7441 13.7067 55.1175 14.9973 55.1601 16.448C55.1815 17.8347 54.8508 19.104 54.1681 20.256C53.4855 21.3867 52.5361 22.2933 51.3201 22.976C50.1041 23.6373 48.7068 23.9893 47.1281 24.032ZM47.2241 19.36C47.8001 19.36 48.3015 19.136 48.7281 18.688C49.1548 18.24 49.3681 17.7173 49.3681 17.12C49.3681 16.5227 49.1548 16.0107 48.7281 15.584C48.3015 15.136 47.8001 14.912 47.2241 14.912C46.6481 14.912 46.1468 15.136 45.7201 15.584C45.2935 16.0107 45.0801 16.5227 45.0801 17.12C45.0801 17.7173 45.2935 18.24 45.7201 18.688C46.1468 19.136 46.6481 19.36 47.2241 19.36ZM64.1281 24.032C62.5495 24.0533 61.1628 23.7333 59.9681 23.072C58.7948 22.3893 57.8668 21.472 57.1841 20.32C56.5228 19.1467 56.1708 17.856 56.1281 16.448C56.1068 14.9973 56.4375 13.7173 57.1201 12.608C57.8028 11.4773 58.7521 10.5813 59.9681 9.92C61.1841 9.25867 62.5708 8.928 64.1281 8.928C65.6641 8.90667 67.0188 9.22667 68.1921 9.888C69.3868 10.5493 70.3361 11.4453 71.0401 12.576C71.7441 13.7067 72.1175 14.9973 72.1601 16.448C72.1815 17.8347 71.8508 19.104 71.1681 20.256C70.4855 21.3867 69.5361 22.2933 68.3201 22.976C67.1041 23.6373 65.7068 23.9893 64.1281 24.032ZM64.2241 19.36C64.8001 19.36 65.3015 19.136 65.7281 18.688C66.1548 18.24 66.3681 17.7173 66.3681 17.12C66.3681 16.5227 66.1548 16.0107 65.7281 15.584C65.3015 15.136 64.8001 14.912 64.2241 14.912C63.6481 14.912 63.1468 15.136 62.7201 15.584C62.2935 16.0107 62.0801 16.5227 62.0801 17.12C62.0801 17.7173 62.2935 18.24 62.7201 18.688C63.1468 19.136 63.6481 19.36 64.2241 19.36ZM79.2721 24C77.3948 24 75.9015 23.6907 74.7921 23.072C73.6828 22.4533 73.1281 21.6533 73.1281 20.672C73.1281 19.9893 73.3521 19.488 73.8001 19.168C74.2695 18.8267 74.8241 18.656 75.4641 18.656C75.9761 18.656 76.3495 18.7413 76.5841 18.912C76.8401 19.0827 77.0641 19.2533 77.2561 19.424C77.4481 19.5947 77.6828 19.68 77.9601 19.68C78.4081 19.68 78.6321 19.52 78.6321 19.2C78.6321 18.7733 78.3761 18.464 77.8641 18.272C77.3735 18.08 76.7548 17.8133 76.0081 17.472C74.9841 16.9813 74.2481 16.416 73.8001 15.776C73.3521 15.1147 73.1281 14.4427 73.1281 13.76C73.1281 12.9493 73.4161 12.1813 73.9921 11.456C74.5681 10.7307 75.3788 10.1333 76.4241 9.664C77.4908 9.19467 78.7601 8.96 80.2321 8.96C81.4695 8.96 82.5788 9.13067 83.5601 9.472C84.5415 9.81333 85.3201 10.2827 85.8961 10.88C86.4721 11.456 86.7601 12.096 86.7601 12.8C86.7601 13.4613 86.5468 13.9627 86.1201 14.304C85.6935 14.6453 85.1388 14.816 84.4561 14.816C84.0721 14.816 83.7628 14.7627 83.5281 14.656C83.3148 14.528 83.1121 14.4107 82.9201 14.304C82.7495 14.1973 82.5041 14.144 82.1841 14.144C82.0135 14.144 81.8641 14.208 81.7361 14.336C81.6081 14.4427 81.5441 14.5813 81.5441 14.752C81.5441 14.88 81.5975 15.008 81.7041 15.136C81.8108 15.264 81.9921 15.3707 82.2481 15.456C82.9095 15.6693 83.5495 15.9467 84.1681 16.288C84.8081 16.608 85.3308 17.0347 85.7361 17.568C86.1628 18.08 86.3761 18.7413 86.3761 19.552C86.3761 20.9387 85.7255 22.0267 84.4241 22.816C83.1228 23.6053 81.4055 24 79.2721 24ZM91.1221 8.48C90.0768 8.48 89.1915 8.10667 88.4661 7.36C87.7408 6.592 87.3781 5.664 87.3781 4.576C87.3781 3.85067 87.5381 3.2 87.8581 2.624C88.1995 2.048 88.6475 1.58933 89.2021 1.248C89.7781 0.885332 90.4181 0.703999 91.1221 0.703999C91.8048 0.703999 92.4235 0.885332 92.9781 1.248C93.5541 1.58933 94.0128 2.048 94.3541 2.624C94.6955 3.2 94.8661 3.85067 94.8661 4.576C94.8661 5.30133 94.6955 5.96267 94.3541 6.56C94.0128 7.136 93.5541 7.60533 92.9781 7.968C92.4235 8.30933 91.8048 8.48 91.1221 8.48ZM91.1221 24C90.2688 24 89.6288 23.7547 89.2021 23.264C88.7968 22.7733 88.5195 22.0267 88.3701 21.024C88.2421 20 88.1675 18.688 88.1461 17.088C88.1461 15.488 88.2101 14.176 88.3381 13.152C88.4875 12.128 88.7755 11.3813 89.2021 10.912C89.6288 10.4213 90.2688 10.176 91.1221 10.176C91.9755 10.176 92.6048 10.4213 93.0101 10.912C93.4368 11.3813 93.7248 12.128 93.8741 13.152C94.0235 14.176 94.0981 15.488 94.0981 17.088C94.1195 18.688 94.0555 20 93.9061 21.024C93.7568 22.0267 93.4688 22.7733 93.0421 23.264C92.6155 23.7547 91.9755 24 91.1221 24ZM108.799 24C107.946 24 107.338 23.7653 106.975 23.296C106.634 22.8053 106.431 22.1973 106.367 21.472C106.303 20.7253 106.271 19.9787 106.271 19.232C106.271 18.1013 106.111 17.1947 105.791 16.512C105.471 15.808 104.906 15.456 104.095 15.456C103.37 15.456 102.837 15.808 102.495 16.512C102.154 17.1947 101.983 18.1013 101.983 19.232C101.983 19.9787 101.951 20.7147 101.887 21.44C101.845 22.1653 101.653 22.7733 101.311 23.264C100.97 23.7333 100.351 23.968 99.4554 23.968C98.794 23.968 98.2394 23.7227 97.7914 23.232C97.3647 22.7413 97.034 22.1013 96.7994 21.312C96.5647 20.5227 96.394 19.6693 96.2874 18.752C96.202 17.8347 96.1594 16.9493 96.1594 16.096C96.1594 15.2427 96.202 14.368 96.2874 13.472C96.3727 12.576 96.522 11.744 96.7354 10.976C96.97 10.208 97.3007 9.58933 97.7274 9.12C98.154 8.65067 98.7087 8.416 99.3914 8.416C100.607 8.416 101.365 8.97067 101.663 10.08C101.919 9.80267 102.325 9.54667 102.879 9.312C103.455 9.056 104.106 8.928 104.831 8.928C106.474 8.928 107.818 9.344 108.863 10.176C109.909 11.008 110.666 12.16 111.135 13.632C111.626 15.0827 111.861 16.768 111.839 18.688C111.839 19.6693 111.743 20.5653 111.551 21.376C111.381 22.1653 111.071 22.8053 110.623 23.296C110.197 23.7653 109.589 24 108.799 24ZM119.792 29.472C118.597 29.472 117.594 29.2373 116.784 28.768C115.973 28.32 115.568 27.7013 115.568 26.912C115.568 26.1013 115.92 25.472 116.624 25.024C117.328 24.576 118.181 24.4373 119.184 24.608C120.357 24.7787 121.402 24.704 122.32 24.384C123.258 24.0853 123.813 23.6267 123.984 23.008C123.642 23.2 123.173 23.36 122.576 23.488C121.978 23.616 121.306 23.68 120.56 23.68C119.109 23.68 117.882 23.4667 116.88 23.04C115.898 22.592 115.109 22.0267 114.512 21.344C113.914 20.64 113.477 19.904 113.2 19.136C112.944 18.3467 112.816 17.6213 112.816 16.96C112.816 15.2107 113.189 13.7387 113.936 12.544C114.704 11.3493 115.674 10.4427 116.848 9.824C118.021 9.20533 119.226 8.896 120.464 8.896C120.869 8.896 121.349 8.928 121.904 8.992C122.48 9.03467 122.97 9.10933 123.376 9.216C123.546 8.68267 123.824 8.24533 124.208 7.904C124.613 7.56267 125.253 7.392 126.128 7.392C126.896 7.392 127.536 7.65867 128.048 8.192C128.56 8.704 128.965 9.408 129.264 10.304C129.562 11.1787 129.776 12.16 129.904 13.248C130.032 14.3147 130.085 15.424 130.064 16.576C130.064 17.7067 130.01 18.7733 129.904 19.776C129.69 21.76 129.146 23.4773 128.272 24.928C127.397 26.3787 126.234 27.4987 124.784 28.288C123.354 29.0773 121.69 29.472 119.792 29.472ZM120.976 18.88C121.637 18.88 122.213 18.6347 122.704 18.144C123.194 17.6533 123.44 17.088 123.44 16.448C123.44 15.7867 123.194 15.2107 122.704 14.72C122.213 14.2293 121.637 13.984 120.976 13.984C120.314 13.984 119.738 14.2293 119.248 14.72C118.778 15.2107 118.544 15.7867 118.544 16.448C118.544 17.088 118.778 17.6533 119.248 18.144C119.738 18.6347 120.314 18.88 120.976 18.88Z" fill="#FF5288"/>
</svg>
