<svg width="131" height="30" viewBox="0 0 131 30" fill="none" xmlns="http://www.w3.org/2000/svg">
<rect width="131" height="30" fill="white"/>
<path d="M10.976 24.232C8.94933 24.232 7.104 23.8267 5.44 23.016C3.776 22.184 2.45333 20.936 1.472 19.272C0.490667 17.608 0 15.528 0 13.032C0 11.56 0.256 10.1627 0.768 8.84C1.28 7.496 1.99467 6.30133 2.912 5.256C3.85067 4.21067 4.94933 3.38933 6.208 2.792C7.46667 2.19467 8.85333 1.896 10.368 1.896C12.2667 1.896 13.9307 2.248 15.36 2.952C16.7893 3.63467 17.8987 4.57333 18.688 5.768C19.4987 6.96267 19.904 8.296 19.904 9.768C19.904 10.344 19.7867 10.8987 19.552 11.432C19.3387 11.944 18.9973 12.3707 18.528 12.712C18.08 13.0533 17.4933 13.224 16.768 13.224C16.0853 13.224 15.5413 13.1173 15.136 12.904C14.752 12.6907 14.4213 12.4347 14.144 12.136C13.888 11.816 13.6213 11.496 13.344 11.176C13.0667 10.856 12.7253 10.5893 12.32 10.376C11.9147 10.1627 11.36 10.056 10.656 10.056C9.99467 10.056 9.38667 10.2267 8.832 10.568C8.27733 10.9093 7.82933 11.3787 7.488 11.976C7.168 12.552 7.008 13.2133 7.008 13.96C7.008 15.0693 7.296 16.04 7.872 16.872C8.46933 17.704 9.312 18.12 10.4 18.12C11.2533 18.12 11.9253 17.992 12.416 17.736C12.928 17.48 13.3547 17.192 13.696 16.872C14.0587 16.5307 14.4427 16.232 14.848 15.976C15.2747 15.72 15.8187 15.592 16.48 15.592C17.4187 15.592 18.1227 15.9013 18.592 16.52C19.0827 17.1387 19.2853 17.896 19.2 18.792C19.1147 19.7093 18.7093 20.584 17.984 21.416C17.28 22.248 16.32 22.9307 15.104 23.464C13.9093 23.976 12.5333 24.232 10.976 24.232Z" fill="#ABABAB"/>
<path d="M24.715 24.296C23.6483 24.296 22.8377 23.88 22.283 23.048C21.7283 22.216 21.355 20.9253 21.163 19.176C20.971 17.4053 20.875 15.1227 20.875 12.328C20.875 10.2373 20.9283 8.41333 21.035 6.856C21.163 5.29867 21.483 4.08267 21.995 3.208C22.507 2.33333 23.3283 1.896 24.459 1.896C25.3337 1.896 25.995 2.14133 26.443 2.632C26.891 3.10133 27.1897 3.73067 27.339 4.52C27.5097 5.288 27.6057 6.14133 27.627 7.08C27.6483 7.99733 27.659 8.91467 27.659 9.832C28.0217 9.66133 28.363 9.52267 28.683 9.416C29.0243 9.30933 29.5577 9.256 30.283 9.256C31.7977 9.256 33.067 9.62933 34.091 10.376C35.115 11.1227 35.8937 12.1147 36.427 13.352C36.9603 14.5893 37.227 15.9547 37.227 17.448C37.227 18.216 37.195 18.9947 37.131 19.784C37.067 20.5733 36.9283 21.2987 36.715 21.96C36.5017 22.6213 36.1923 23.1653 35.787 23.592C35.3817 23.9973 34.8377 24.2 34.155 24.2C33.2803 24.2 32.6297 24.008 32.203 23.624C31.7977 23.2187 31.5417 22.6533 31.435 21.928C31.3283 21.1813 31.275 20.3173 31.275 19.336C31.275 18.2053 31.147 17.2667 30.891 16.52C30.6563 15.7733 30.187 15.4 29.483 15.4C28.779 15.4 28.2883 15.7733 28.011 16.52C27.755 17.2667 27.6163 18.2053 27.595 19.336C27.595 20.3173 27.531 21.1813 27.403 21.928C27.2963 22.6747 27.0403 23.2613 26.635 23.688C26.2297 24.0933 25.5897 24.296 24.715 24.296Z" fill="#ABABAB"/>
<path d="M46.1875 24.328C44.6088 24.3493 43.2222 24.0293 42.0275 23.368C40.8542 22.6853 39.9262 21.768 39.2435 20.616C38.5822 19.4427 38.2302 18.152 38.1875 16.744C38.1662 15.2933 38.4968 14.0133 39.1795 12.904C39.8622 11.7733 40.8115 10.8773 42.0275 10.216C43.2435 9.55467 44.6302 9.224 46.1875 9.224C47.7235 9.20267 49.0782 9.52267 50.2515 10.184C51.4462 10.8453 52.3955 11.7413 53.0995 12.872C53.8035 14.0027 54.1768 15.2933 54.2195 16.744C54.2408 18.1307 53.9102 19.4 53.2275 20.552C52.5448 21.6827 51.5955 22.5893 50.3795 23.272C49.1635 23.9333 47.7662 24.2853 46.1875 24.328ZM46.2835 19.656C46.8595 19.656 47.3608 19.432 47.7875 18.984C48.2142 18.536 48.4275 18.0133 48.4275 17.416C48.4275 16.8187 48.2142 16.3067 47.7875 15.88C47.3608 15.432 46.8595 15.208 46.2835 15.208C45.7075 15.208 45.2062 15.432 44.7795 15.88C44.3528 16.3067 44.1395 16.8187 44.1395 17.416C44.1395 18.0133 44.3528 18.536 44.7795 18.984C45.2062 19.432 45.7075 19.656 46.2835 19.656Z" fill="#ABABAB"/>
<path d="M63.1875 24.328C61.6088 24.3493 60.2222 24.0293 59.0275 23.368C57.8542 22.6853 56.9262 21.768 56.2435 20.616C55.5822 19.4427 55.2302 18.152 55.1875 16.744C55.1662 15.2933 55.4968 14.0133 56.1795 12.904C56.8622 11.7733 57.8115 10.8773 59.0275 10.216C60.2435 9.55467 61.6302 9.224 63.1875 9.224C64.7235 9.20267 66.0782 9.52267 67.2515 10.184C68.4462 10.8453 69.3955 11.7413 70.0995 12.872C70.8035 14.0027 71.1768 15.2933 71.2195 16.744C71.2408 18.1307 70.9102 19.4 70.2275 20.552C69.5448 21.6827 68.5955 22.5893 67.3795 23.272C66.1635 23.9333 64.7662 24.2853 63.1875 24.328ZM63.2835 19.656C63.8595 19.656 64.3608 19.432 64.7875 18.984C65.2142 18.536 65.4275 18.0133 65.4275 17.416C65.4275 16.8187 65.2142 16.3067 64.7875 15.88C64.3608 15.432 63.8595 15.208 63.2835 15.208C62.7075 15.208 62.2062 15.432 61.7795 15.88C61.3528 16.3067 61.1395 16.8187 61.1395 17.416C61.1395 18.0133 61.3528 18.536 61.7795 18.984C62.2062 19.432 62.7075 19.656 63.2835 19.656Z" fill="#ABABAB"/>
<path d="M78.3315 24.296C76.4542 24.296 74.9608 23.9867 73.8515 23.368C72.7422 22.7493 72.1875 21.9493 72.1875 20.968C72.1875 20.2853 72.4115 19.784 72.8595 19.464C73.3288 19.1227 73.8835 18.952 74.5235 18.952C75.0355 18.952 75.4088 19.0373 75.6435 19.208C75.8995 19.3787 76.1235 19.5493 76.3155 19.72C76.5075 19.8907 76.7422 19.976 77.0195 19.976C77.4675 19.976 77.6915 19.816 77.6915 19.496C77.6915 19.0693 77.4355 18.76 76.9235 18.568C76.4328 18.376 75.8142 18.1093 75.0675 17.768C74.0435 17.2773 73.3075 16.712 72.8595 16.072C72.4115 15.4107 72.1875 14.7387 72.1875 14.056C72.1875 13.2453 72.4755 12.4773 73.0515 11.752C73.6275 11.0267 74.4382 10.4293 75.4835 9.96C76.5502 9.49067 77.8195 9.256 79.2915 9.256C80.5288 9.256 81.6382 9.42667 82.6195 9.768C83.6008 10.1093 84.3795 10.5787 84.9555 11.176C85.5315 11.752 85.8195 12.392 85.8195 13.096C85.8195 13.7573 85.6062 14.2587 85.1795 14.6C84.7528 14.9413 84.1982 15.112 83.5155 15.112C83.1315 15.112 82.8222 15.0587 82.5875 14.952C82.3742 14.824 82.1715 14.7067 81.9795 14.6C81.8088 14.4933 81.5635 14.44 81.2435 14.44C81.0728 14.44 80.9235 14.504 80.7955 14.632C80.6675 14.7387 80.6035 14.8773 80.6035 15.048C80.6035 15.176 80.6568 15.304 80.7635 15.432C80.8702 15.56 81.0515 15.6667 81.3075 15.752C81.9688 15.9653 82.6088 16.2427 83.2275 16.584C83.8675 16.904 84.3902 17.3307 84.7955 17.864C85.2222 18.376 85.4355 19.0373 85.4355 19.848C85.4355 21.2347 84.7848 22.3227 83.4835 23.112C82.1822 23.9013 80.4648 24.296 78.3315 24.296Z" fill="#ABABAB"/>
<path d="M90.1815 8.776C89.1362 8.776 88.2508 8.40267 87.5255 7.656C86.8002 6.888 86.4375 5.96 86.4375 4.872C86.4375 4.14667 86.5975 3.496 86.9175 2.92C87.2588 2.344 87.7068 1.88533 88.2615 1.544C88.8375 1.18133 89.4775 1 90.1815 1C90.8642 1 91.4828 1.18133 92.0375 1.544C92.6135 1.88533 93.0722 2.344 93.4135 2.92C93.7548 3.496 93.9255 4.14667 93.9255 4.872C93.9255 5.59733 93.7548 6.25867 93.4135 6.856C93.0722 7.432 92.6135 7.90133 92.0375 8.264C91.4828 8.60533 90.8642 8.776 90.1815 8.776ZM90.1815 24.296C89.3282 24.296 88.6882 24.0507 88.2615 23.56C87.8562 23.0693 87.5788 22.3227 87.4295 21.32C87.3015 20.296 87.2268 18.984 87.2055 17.384C87.2055 15.784 87.2695 14.472 87.3975 13.448C87.5468 12.424 87.8348 11.6773 88.2615 11.208C88.6882 10.7173 89.3282 10.472 90.1815 10.472C91.0348 10.472 91.6642 10.7173 92.0695 11.208C92.4962 11.6773 92.7842 12.424 92.9335 13.448C93.0828 14.472 93.1575 15.784 93.1575 17.384C93.1788 18.984 93.1148 20.296 92.9655 21.32C92.8162 22.3227 92.5282 23.0693 92.1015 23.56C91.6748 24.0507 91.0348 24.296 90.1815 24.296Z" fill="#ABABAB"/>
<path d="M107.859 24.296C107.005 24.296 106.397 24.0613 106.035 23.592C105.693 23.1013 105.491 22.4933 105.427 21.768C105.363 21.0213 105.331 20.2747 105.331 19.528C105.331 18.3973 105.171 17.4907 104.851 16.808C104.531 16.104 103.965 15.752 103.155 15.752C102.429 15.752 101.896 16.104 101.555 16.808C101.213 17.4907 101.043 18.3973 101.043 19.528C101.043 20.2747 101.011 21.0107 100.947 21.736C100.904 22.4613 100.712 23.0693 100.371 23.56C100.029 24.0293 99.4108 24.264 98.5147 24.264C97.8534 24.264 97.2988 24.0187 96.8508 23.528C96.4241 23.0373 96.0934 22.3973 95.8587 21.608C95.6241 20.8187 95.4534 19.9653 95.3467 19.048C95.2614 18.1307 95.2188 17.2453 95.2188 16.392C95.2188 15.5387 95.2614 14.664 95.3467 13.768C95.4321 12.872 95.5814 12.04 95.7947 11.272C96.0294 10.504 96.3601 9.88533 96.7868 9.416C97.2134 8.94667 97.7681 8.712 98.4508 8.712C99.6668 8.712 100.424 9.26667 100.723 10.376C100.979 10.0987 101.384 9.84267 101.939 9.608C102.515 9.352 103.165 9.224 103.891 9.224C105.533 9.224 106.877 9.64 107.923 10.472C108.968 11.304 109.725 12.456 110.195 13.928C110.685 15.3787 110.92 17.064 110.899 18.984C110.899 19.9653 110.803 20.8613 110.611 21.672C110.44 22.4613 110.131 23.1013 109.683 23.592C109.256 24.0613 108.648 24.296 107.859 24.296Z" fill="#ABABAB"/>
<path d="M118.851 29.768C117.656 29.768 116.654 29.5333 115.843 29.064C115.032 28.616 114.627 27.9973 114.627 27.208C114.627 26.3973 114.979 25.768 115.683 25.32C116.387 24.872 117.24 24.7333 118.243 24.904C119.416 25.0747 120.462 25 121.379 24.68C122.318 24.3813 122.872 23.9227 123.043 23.304C122.702 23.496 122.232 23.656 121.635 23.784C121.038 23.912 120.366 23.976 119.619 23.976C118.168 23.976 116.942 23.7627 115.939 23.336C114.958 22.888 114.168 22.3227 113.571 21.64C112.974 20.936 112.536 20.2 112.259 19.432C112.003 18.6427 111.875 17.9173 111.875 17.256C111.875 15.5067 112.248 14.0347 112.995 12.84C113.763 11.6453 114.734 10.7387 115.907 10.12C117.08 9.50133 118.286 9.192 119.523 9.192C119.928 9.192 120.408 9.224 120.963 9.288C121.539 9.33067 122.03 9.40533 122.435 9.512C122.606 8.97867 122.883 8.54133 123.267 8.2C123.672 7.85867 124.312 7.688 125.187 7.688C125.955 7.688 126.595 7.95467 127.107 8.488C127.619 9 128.024 9.704 128.323 10.6C128.622 11.4747 128.835 12.456 128.963 13.544C129.091 14.6107 129.144 15.72 129.123 16.872C129.123 18.0027 129.07 19.0693 128.963 20.072C128.75 22.056 128.206 23.7733 127.331 25.224C126.456 26.6747 125.294 27.7947 123.843 28.584C122.414 29.3733 120.75 29.768 118.851 29.768ZM120.035 19.176C120.696 19.176 121.272 18.9307 121.763 18.44C122.254 17.9493 122.499 17.384 122.499 16.744C122.499 16.0827 122.254 15.5067 121.763 15.016C121.272 14.5253 120.696 14.28 120.035 14.28C119.374 14.28 118.798 14.5253 118.307 15.016C117.838 15.5067 117.603 16.0827 117.603 16.744C117.603 17.384 117.838 17.9493 118.307 18.44C118.798 18.9307 119.374 19.176 120.035 19.176Z" fill="#ABABAB"/>
</svg>
