<svg width="19" height="19" viewBox="0 0 19 19" fill="none" xmlns="http://www.w3.org/2000/svg">
<path d="M19 9.5C19 4.25369 14.7463 0 9.5 0C4.25369 0 0 4.25369 0 9.5C0 14.2413 3.47349 18.1717 8.01575 18.8851V12.2467H5.60301V9.5H8.01575V7.40655C8.01575 5.02588 9.43454 3.70996 11.6041 3.70996C12.6435 3.70996 13.731 3.89565 13.731 3.89565V6.23358H12.5326C11.353 6.23358 10.9843 6.96569 10.9843 7.71783V9.5H13.6188L13.1979 12.2467H10.9843V18.8851C15.5265 18.173 19 14.2427 19 9.5Z" fill="#ABABAB"/>
<path d="M13.1984 12.2467L13.6193 9.5H10.9848V7.71784C10.9848 6.96703 11.3521 6.23359 12.5331 6.23359H13.7315V3.89566C13.7315 3.89566 12.644 3.70996 11.6046 3.70996C9.43504 3.70996 8.01626 5.02454 8.01626 7.40656V9.5H5.60352V12.2467H8.01626V18.8851C8.49987 18.9613 8.99551 19 9.50051 19C10.0055 19 10.5011 18.9599 10.9848 18.8851V12.2467H13.1984Z" fill="#FEFEFE"/>
</svg>
