<svg width="18" height="15" viewBox="0 0 18 15" fill="none" xmlns="http://www.w3.org/2000/svg">
<path fill-rule="evenodd" clip-rule="evenodd" d="M1 2C1 1.44771 1.44772 1 2 1H14.4C14.9522 1 15.4 1.44772 15.4 2V5.7999H8.40006C7.84778 5.7999 7.40006 6.24762 7.40006 6.7999V10.6H5.06639C3.51649 11.6062 1.29754 12.9999 1.00013 12.9999V9.7999L1.02026 9.80124C1.00698 9.73623 1 9.66891 1 9.59997V2Z" fill="#555555"/>
<path d="M15.4 5.7999V6.2999C15.6761 6.2999 15.9 6.07604 15.9 5.7999H15.4ZM7.40006 10.6V11.1C7.67621 11.1 7.90006 10.8761 7.90006 10.6H7.40006ZM5.06639 10.6V10.1C4.96975 10.1 4.87518 10.128 4.79412 10.1806L5.06639 10.6ZM1.00013 12.9999H0.500131C0.500131 13.276 0.723989 13.4999 1.00013 13.4999V12.9999ZM1.00013 9.7999L1.03338 9.30101C0.895306 9.2918 0.75959 9.34024 0.658536 9.43478C0.557483 9.52932 0.500131 9.66152 0.500131 9.7999H1.00013ZM1.02026 9.80124L0.987012 10.3001C1.14267 10.3105 1.29425 10.2476 1.39686 10.1301C1.49948 10.0126 1.54137 9.85398 1.51014 9.70113L1.02026 9.80124ZM2 0.5C1.17157 0.5 0.5 1.17157 0.5 2H1.5C1.5 1.72386 1.72386 1.5 2 1.5V0.5ZM14.4 0.5H2V1.5H14.4V0.5ZM15.9 2C15.9 1.17157 15.2284 0.5 14.4 0.5V1.5C14.6761 1.5 14.9 1.72386 14.9 2H15.9ZM15.9 5.7999V2H14.9V5.7999H15.9ZM8.40006 6.2999H15.4V5.2999H8.40006V6.2999ZM7.90006 6.7999C7.90006 6.52376 8.12392 6.2999 8.40006 6.2999V5.2999C7.57164 5.2999 6.90006 5.97147 6.90006 6.7999H7.90006ZM7.90006 10.6V6.7999H6.90006V10.6H7.90006ZM5.06639 11.1H7.40006V10.1H5.06639V11.1ZM1.00013 13.4999C1.09797 13.4999 1.18384 13.4749 1.2289 13.4606C1.28429 13.443 1.34133 13.4204 1.39604 13.3966C1.506 13.3488 1.63655 13.2833 1.77855 13.2074C2.06414 13.0549 2.42655 12.844 2.82195 12.6053C3.61436 12.1271 4.56176 11.5237 5.33867 11.0193L4.79412 10.1806C4.02112 10.6825 3.08409 11.2791 2.30521 11.7492C1.91495 11.9848 1.56999 12.1851 1.30744 12.3254C1.17538 12.3959 1.07167 12.4472 0.997302 12.4795C0.959846 12.4958 0.937206 12.504 0.92666 12.5074C0.905782 12.514 0.939471 12.4999 1.00013 12.4999V13.4999ZM0.500131 9.7999V12.9999H1.50013V9.7999H0.500131ZM1.05351 9.30235L1.03338 9.30101L0.96688 10.2988L0.987012 10.3001L1.05351 9.30235ZM0.5 9.59997C0.5 9.70273 0.510407 9.80358 0.530387 9.90135L1.51014 9.70113C1.50355 9.66887 1.5 9.6351 1.5 9.59997H0.5ZM0.5 2V9.59997H1.5V2H0.5Z" fill="#555555"/>
<path d="M16.979 11.4029L17.0532 11.8974C16.8916 11.9216 16.7283 11.8653 16.616 11.7467C16.5036 11.628 16.4563 11.4619 16.4893 11.3019L16.979 11.4029ZM16.9998 11.3998L16.9256 10.9053C17.0695 10.8837 17.2157 10.9259 17.326 11.0209C17.4363 11.1159 17.4998 11.2542 17.4998 11.3998L16.9998 11.3998ZM16.9997 13.7998L17.4997 13.7999C17.4997 14.076 17.2758 14.2998 16.9997 14.2998V13.7998ZM14.2887 12.1998V11.6998C14.3853 11.6998 14.4799 11.7278 14.5609 11.7804L14.2887 12.1998ZM16.4997 6.7998C16.4997 6.52366 16.2758 6.2998 15.9997 6.2998V5.2998C16.8281 5.2998 17.4997 5.97138 17.4997 6.7998H16.4997ZM16.4997 11.1998V6.7998H17.4997V11.1998H16.4997ZM16.4893 11.3019C16.496 11.2693 16.4997 11.2352 16.4997 11.1998H17.4997C17.4997 11.3035 17.4891 11.4053 17.4687 11.5039L16.4893 11.3019ZM17.0739 11.8942L17.0532 11.8974L16.9048 10.9084L16.9256 10.9053L17.0739 11.8942ZM16.4997 13.7998L16.4998 11.3998L17.4998 11.3998L17.4997 13.7999L16.4997 13.7998ZM14.5609 11.7804C15.0756 12.1146 15.6986 12.5112 16.2157 12.8233C16.475 12.9798 16.7021 13.1117 16.8733 13.2031C16.9597 13.2493 17.0244 13.2811 17.068 13.3001C17.0901 13.3097 17.0995 13.3128 17.0991 13.3126C17.0986 13.3125 17.091 13.3101 17.0782 13.3074C17.0671 13.3052 17.0388 13.2998 16.9997 13.2998V14.2998C16.9081 14.2998 16.8309 14.2767 16.7968 14.2659C16.7524 14.2518 16.7086 14.2343 16.6693 14.2171C16.59 14.1827 16.4985 14.1367 16.4022 14.0852C16.208 13.9815 15.9634 13.8391 15.6989 13.6795C15.1684 13.3592 14.535 12.9558 14.0164 12.6191L14.5609 11.7804ZM8.39969 11.6998H14.2887V12.6998H8.39969V11.6998ZM7.89969 11.1998C7.89969 11.4759 8.12355 11.6998 8.39969 11.6998V12.6998C7.57126 12.6998 6.89969 12.0282 6.89969 11.1998H7.89969ZM7.89969 6.7998V11.1998H6.89969V6.7998H7.89969ZM8.39969 6.2998C8.12355 6.2998 7.89969 6.52366 7.89969 6.7998H6.89969C6.89969 5.97138 7.57126 5.2998 8.39969 5.2998V6.2998ZM15.9997 6.2998H8.39969V5.2998H15.9997V6.2998Z" fill="#555555"/>
</svg>
