<svg width="20" height="15" viewBox="0 0 20 15" fill="none" xmlns="http://www.w3.org/2000/svg">
<ellipse cx="14.7278" cy="3.82848" rx="3.15627" ry="3.14684" fill="#555555"/>
<path d="M8.71756 3.82848C8.71756 5.15011 7.64236 6.22533 6.3113 6.22533C4.98024 6.22533 3.90503 5.15011 3.90503 3.82848C3.90503 2.50686 4.98024 1.43164 6.3113 1.43164C7.64236 1.43164 8.71756 2.50686 8.71756 3.82848Z" stroke="#555555" stroke-width="1.5"/>
<path d="M3.58111 8.44487C3.78694 8.00592 4.22804 7.72559 4.71285 7.72559H7.90929C8.3941 7.72559 8.8352 8.00592 9.04103 8.44487L10.6085 11.7875C10.9972 12.6164 10.3923 13.5682 9.47676 13.5682H3.14538C2.22985 13.5682 1.62493 12.6164 2.01364 11.7875L3.58111 8.44487Z" stroke="#555555" stroke-width="1.5"/>
<path fill-rule="evenodd" clip-rule="evenodd" d="M10.5193 14.0265C10.818 14.2095 11.1724 14.3172 11.562 14.3172H17.8934C19.3582 14.3172 20.3261 12.7944 19.7042 11.4681L18.1367 8.12547C17.8073 7.42315 17.1016 6.97461 16.3259 6.97461H13.1295C12.3538 6.97461 11.648 7.42315 11.3187 8.12547L10.5193 9.83015L11.2874 11.4681C11.7439 12.4417 11.3438 13.5212 10.5193 14.0265Z" fill="#555555"/>
</svg>
