<svg width="18" height="21" viewBox="0 0 18 21" fill="none" xmlns="http://www.w3.org/2000/svg">
<path d="M9.00001 20.035C9.67228 20.0441 10.3206 19.7858 10.8026 19.317C11.2845 18.8482 11.5605 18.2073 11.57 17.535H6.43001C6.43949 18.2073 6.71554 18.8482 7.19746 19.317C7.67939 19.7858 8.32775 20.0441 9.00001 20.035ZM17.654 14.187C16.878 13.376 15.425 12.156 15.425 8.16C15.4105 6.7086 14.8887 5.30801 13.9499 4.20101C13.0111 3.09401 11.7146 2.35037 10.285 2.099V1.285C10.285 0.944197 10.1496 0.617352 9.90864 0.376368C9.66766 0.135384 9.34081 0 9.00001 0C8.65921 0 8.33236 0.135384 8.09138 0.376368C7.85039 0.617352 7.71501 0.944197 7.71501 1.285V2.099C6.28547 2.35037 4.98894 3.09401 4.05015 4.20101C3.11137 5.30801 2.5895 6.7086 2.57501 8.16C2.57501 12.16 1.12301 13.376 0.34601 14.187C0.123101 14.4128 -0.00130352 14.7177 1.03015e-05 15.035C0.00248518 15.2018 0.0378326 15.3665 0.10403 15.5197C0.170227 15.6728 0.265974 15.8114 0.385793 15.9275C0.505611 16.0436 0.647148 16.135 0.802305 16.1963C0.957461 16.2576 1.12319 16.2878 1.29001 16.285H16.71C16.8768 16.2878 17.0426 16.2576 17.1977 16.1963C17.3529 16.135 17.4944 16.0436 17.6142 15.9275C17.734 15.8114 17.8298 15.6728 17.896 15.5197C17.9622 15.3665 17.9975 15.2018 18 15.035C18.0013 14.7177 17.8769 14.4128 17.654 14.187Z" fill="#555555"/>
</svg>
