<svg width="16" height="17" viewBox="0 0 16 17" fill="none" xmlns="http://www.w3.org/2000/svg">
<path d="M7.80979 1.58541C7.86966 1.40115 8.13034 1.40115 8.19021 1.58541L9.75121 6.38967C9.77798 6.47207 9.85478 6.52786 9.94142 6.52786H14.9929C15.1867 6.52786 15.2672 6.77579 15.1105 6.88967L11.0237 9.85886C10.9536 9.90979 10.9243 10.0001 10.9511 10.0825L12.5121 14.8867C12.5719 15.071 12.361 15.2242 12.2043 15.1103L8.11756 12.1411C8.04746 12.0902 7.95254 12.0902 7.88244 12.1411L3.7957 15.1103C3.63895 15.2242 3.42806 15.071 3.48793 14.8867L5.04893 10.0825C5.0757 10.0001 5.04637 9.90979 4.97627 9.85886L0.889527 6.88967C0.732784 6.77579 0.81334 6.52786 1.00708 6.52786H6.05858C6.14523 6.52786 6.22202 6.47207 6.24879 6.38967L7.80979 1.58541Z" fill="#555555" stroke="#555555" stroke-width="1.5" stroke-linejoin="round"/>
</svg>
