<svg width="12" height="16" viewBox="0 0 12 16" fill="none" xmlns="http://www.w3.org/2000/svg">
<path d="M0.75 1.00013C0.75 0.859055 0.861852 0.750139 0.996913 0.750133C2.80599 0.750052 6.61344 0.749913 8.46778 0.750075C8.54746 0.750082 8.62521 0.789692 8.67456 0.863347L9.29108 0.45025L8.67456 0.863347C9.38916 1.92983 9.6157 2.21988 11.1943 4.19339L11.7799 3.72491L11.1943 4.19339C11.2298 4.23777 11.25 4.29553 11.25 4.35227V4.38143V4.41057V4.43968V4.46876V4.49783V4.52686V4.55588V4.58486V4.61383V4.64277V4.67168V4.70057V4.72944V4.75828V4.78709V4.81588V4.84465V4.87339V4.9021V4.93079V4.95946V4.9881V5.01671V5.0453V5.07386V5.1024V5.13091V5.1594V5.18786V5.2163V5.24471V5.27309V5.30145V5.32978V5.35809V5.38637V5.41462V5.44285V5.47105V5.49923V5.52738V5.55551V5.5836V5.61167V5.63972V5.66774V5.69573V5.72369V5.75163V5.77955V5.80743V5.83529V5.86312V5.89093V5.91871V5.94646V5.97418V6.00188V6.02955V6.05719V6.08481V6.1124V6.13996V6.16749V6.195V6.22248V6.24993V6.27735V6.30475V6.33212V6.35946V6.38677V6.41406V6.44132V6.46855V6.49575V6.52292V6.55007V6.57719V6.60428V6.63134V6.65837V6.68538V6.71235V6.7393V6.76622V6.79311V6.81997V6.84681V6.87361V6.90039V6.92714V6.95386V6.98055V7.00721V7.03384V7.06045V7.08702V7.11357V7.14009V7.16657V7.19303V7.21946V7.24586V7.27223V7.29857V7.32488V7.35116V7.37742V7.40364V7.42983V7.456V7.48213V7.50823V7.53431V7.56035V7.58636V7.61235V7.6383V7.66422V7.69012V7.71598V7.74181V7.76762V7.79339V7.81913V7.84484V7.87052V7.89617V7.92179V7.94738V7.97294V7.99847V8.02396V8.04943V8.07487V8.10027V8.12564V8.15098V8.17629V8.20157V8.22682V8.25204V8.27722V8.30238V8.3275V8.35259V8.37765V8.40268V8.42768V8.45264V8.47758V8.50248V8.52735V8.55219V8.57699V8.60177V8.62651V8.65122V8.6759V8.70054V8.72516V8.74974V8.77429V8.7988V8.82329V8.84774V8.87216V8.89655V8.9209V8.94522V8.96951V8.99377V9.01799V9.04218V9.06634V9.09046V9.11455V9.13861V9.16264V9.18663V9.21059V9.23451V9.25841V9.28226V9.30609V9.32988V9.35364V9.37737V9.40106V9.42472V9.44834V9.47193V9.49549V9.51901V9.5425V9.56595V9.58937V9.61276V9.63611V9.65943V9.68272V9.70597V9.72918V9.75237V9.77551V9.79862V9.8217V9.84475V9.86776V9.89073V9.91367V9.93657V9.95944V9.98228V10.0051V10.0278V10.0506V10.0733V10.0959V10.1186V10.1411V10.1637V10.1862V10.2087V10.2312V10.2536V10.2759V10.2983V10.3206V10.3429V10.3651V10.3873V10.4095V10.4316V10.4537V10.4757V10.4978V10.5197V10.5417V10.5636V10.5855V10.6073V10.6291V10.6509V10.6726V10.6943V10.716V10.7376V10.7592V10.7807V10.8022V10.8237V10.8451V10.8666V10.8879V10.9092V10.9305V10.9518V10.973V10.9942V11.0153V11.0364V11.0575V11.0785V11.0995V11.1205V11.1414V11.1623V11.1831V11.2039V11.2247V11.2454V11.2661V11.2868V11.3074V11.328V11.3485V11.369V11.3895V11.4099V11.4303V11.4506V11.4709V11.4912V11.5114V11.5316V11.5518V11.5719V11.592V11.612V11.632V11.652V11.6719V11.6918V11.7117V11.7315V11.7512V11.771V11.7907V11.8103V11.8299V11.8495V11.869V11.8885V11.908V11.9274V11.9468V11.9661V11.9854V12.0047V12.0239V12.0431V12.0622V12.0813V12.1004V12.1194V12.1384V12.1573V12.1762V12.1951V12.2139V12.2327V12.2514V12.2701V12.2888V12.3074V12.326V12.3445V12.363V12.3815V12.3999V12.4183V12.4366V12.4549V12.4731V12.4913V12.5095V12.5276V12.5457V12.5638V12.5818V12.5998V12.6177V12.6356V12.6534V12.6712V12.689V12.7067V12.7244V12.742V12.7596V12.7771V12.7946V12.8121V12.8295V12.8469V12.8643V12.8815V12.8988V12.916V12.9332V12.9503V12.9674V12.9845V13.0015V13.0184V13.0353V13.0522V13.0691V13.0858V13.1026V13.1193V13.136V13.1526V13.1692V13.1857V13.2022V13.2186V13.235V13.2514V13.2677V13.284V13.3002V13.3164V13.3326V13.3487V13.3647V13.3807V13.3967V13.4126V13.4285V13.4444V13.4602V13.4759V13.4916V13.5073V13.5229V13.5385V13.554V13.5695V13.585V13.6004V13.6157V13.631V13.6463V13.6615V13.6767V13.6919V13.7069V13.722V13.737V13.752V13.7669V13.7817V13.7966V13.8113V13.8261V13.8408V13.8554V13.87V13.8845V13.8991V13.9135V13.9279V13.9423V13.9566V13.9709V13.9851V13.9993V14.0135V14.0276V14.0416V14.0556V14.0696V14.0835V14.0974V14.1112V14.125V14.1387V14.1524V14.166V14.1796V14.1932V14.2067V14.2201V14.2336V14.2469V14.2602V14.2735V14.2867V14.2999V14.313V14.3261V14.3391V14.3521V14.3651V14.378V14.3908V14.4036V14.4164V14.4291V14.4417V14.4544V14.4669V14.4794V14.4919V14.5043V14.5167V14.529V14.5413V14.5535V14.5657V14.5779V14.59V14.602V14.614V14.6259V14.6378V14.6497V14.6615V14.6732V14.685V14.6966V14.7082V14.7198V14.7313V14.7428V14.7542V14.7655V14.7769V14.7881V14.7994V14.8105V14.8217V14.8327V14.8438V14.8547V14.8657V14.8765V14.8874V14.8981V14.9089V14.9196V14.9302V14.9408V14.9513V14.9618V14.9722V14.9826V14.993V15.0033C11.25 15.1383 11.1411 15.2502 11 15.2502H1C0.861929 15.2502 0.75 15.1383 0.75 15.0002V1.00013Z" stroke="#777777" stroke-width="1.5"/>
<path d="M7 1V4C7 4.55228 7.44772 5 8 5H11" stroke="#777777" stroke-width="1.5"/>
<rect x="3" y="8" width="6" height="1" rx="0.5" fill="#777777"/>
<rect x="3" y="11" width="6" height="1" rx="0.5" fill="#777777"/>
</svg>
