<svg width="20" height="15" viewBox="0 0 20 15" fill="none" xmlns="http://www.w3.org/2000/svg">
<ellipse cx="14.7279" cy="3.82848" rx="3.15627" ry="3.14684" fill="#777777"/>
<path d="M8.71763 3.82848C8.71763 5.15011 7.64242 6.22533 6.31136 6.22533C4.9803 6.22533 3.90509 5.15011 3.90509 3.82848C3.90509 2.50686 4.9803 1.43164 6.31136 1.43164C7.64242 1.43164 8.71763 2.50686 8.71763 3.82848Z" stroke="#777777" stroke-width="1.5"/>
<path d="M3.58123 8.44487C3.78707 8.00592 4.22816 7.72559 4.71297 7.72559H7.90941C8.39423 7.72559 8.83532 8.00592 9.04116 8.44487L10.6086 11.7875C10.9973 12.6164 10.3924 13.5682 9.47688 13.5682H3.1455C2.22997 13.5682 1.62505 12.6164 2.01376 11.7875L3.58123 8.44487Z" stroke="#777777" stroke-width="1.5"/>
<path fill-rule="evenodd" clip-rule="evenodd" d="M10.5195 14.0265C10.8182 14.2095 11.1727 14.3172 11.5622 14.3172H17.8936C19.3585 14.3172 20.3263 12.7944 19.7044 11.4681L18.1369 8.12547C17.8076 7.42315 17.1018 6.97461 16.3261 6.97461H13.1297C12.354 6.97461 11.6483 7.42315 11.3189 8.12547L10.5195 9.83015L11.2876 11.4681C11.7442 12.4417 11.344 13.5212 10.5195 14.0265Z" fill="#777777"/>
</svg>
