<svg width="14" height="17" viewBox="0 0 14 17" fill="none" xmlns="http://www.w3.org/2000/svg">
<path d="M9.10989 15.0332C9.10989 16.1186 8.1624 17.0005 7.00221 17.0005C5.84202 17.0005 4.89453 16.1186 4.89453 15.0332H9.10989Z" fill="#585757"/>
<path d="M11.4217 4.27344C10.7264 3.24445 9.70966 2.47605 8.52771 2.11128V1.23027C8.52771 0.529032 7.87056 0 7.00004 0C6.12951 0 5.47236 0.529032 5.47236 1.23027V2.09878C3.15662 2.7413 1.58543 4.81507 1.58543 7.52836C1.58543 10.9552 0.658247 12.2555 0.260785 12.6549C0.00496352 12.9105 -0.0696755 13.2928 0.0681937 13.6288C0.204129 13.9552 0.518541 14.1673 0.869788 14.1673H13.1298C13.482 14.1673 13.7973 13.9544 13.9324 13.6259C14.0693 13.2919 13.9947 12.9124 13.7416 12.6578C13.3404 12.2461 12.4142 10.9278 12.4142 7.52836C12.4142 6.34025 12.0604 5.2378 11.4595 4.32626L11.4217 4.27344Z" fill="#585757"/>
</svg>
