<svg width="24" height="24" viewBox="0 0 24 24" fill="none" xmlns="http://www.w3.org/2000/svg">
<rect width="24" height="24" fill="#FF0000" fill-opacity="0.6"/>
<path d="M12 21.9998C12.6723 22.0089 13.3206 21.7507 13.8026 21.2819C14.2845 20.8131 14.5605 20.1721 14.57 19.4998H9.43001C9.43949 20.1721 9.71554 20.8131 10.1975 21.2819C10.6794 21.7507 11.3277 22.0089 12 21.9998ZM20.654 16.1518C19.878 15.3408 18.425 14.1208 18.425 10.1248C18.4105 8.67344 17.8887 7.27286 16.9499 6.16585C16.0111 5.05885 14.7146 4.31522 13.285 4.06384V3.24984C13.285 2.90904 13.1496 2.5822 12.9086 2.34121C12.6677 2.10023 12.3408 1.96484 12 1.96484C11.6592 1.96484 11.3324 2.10023 11.0914 2.34121C10.8504 2.5822 10.715 2.90904 10.715 3.24984V4.06384C9.28547 4.31522 7.98894 5.05885 7.05015 6.16585C6.11137 7.27286 5.5895 8.67344 5.57501 10.1248C5.57501 14.1248 4.12301 15.3408 3.34601 16.1518C3.1231 16.3777 2.9987 16.6825 3.00001 16.9998C3.00249 17.1667 3.03783 17.3314 3.10403 17.4845C3.17023 17.6377 3.26597 17.7763 3.38579 17.8924C3.50561 18.0085 3.64715 18.0998 3.8023 18.1611C3.95746 18.2225 4.12319 18.2526 4.29001 18.2498H19.71C19.8768 18.2526 20.0426 18.2225 20.1977 18.1611C20.3529 18.0998 20.4944 18.0085 20.6142 17.8924C20.734 17.7763 20.8298 17.6377 20.896 17.4845C20.9622 17.3314 20.9975 17.1667 21 16.9998C21.0013 16.6825 20.8769 16.3777 20.654 16.1518Z" fill="#DDDDDD"/>
<path d="M17 9C19.2091 9 21 7.20914 21 5C21 2.79086 19.2091 1 17 1C14.7909 1 13 2.79086 13 5C13 7.20914 14.7909 9 17 9Z" fill="#FF5288"/>
</svg>
