<svg width="19" height="16" viewBox="0 0 19 16" fill="none" xmlns="http://www.w3.org/2000/svg">
<path d="M7.13204 6.54923C7.89505 6.54923 8.54822 6.27752 9.09162 5.7342C9.63503 5.19088 9.90673 4.53763 9.90673 3.77461C9.90673 3.0116 9.63503 2.35834 9.09162 1.81502C8.5483 1.2717 7.89505 1 7.13204 1C6.36902 1 5.71577 1.2717 5.17245 1.81502C4.62913 2.35834 4.35742 3.0116 4.35742 3.77461C4.35742 4.53763 4.62913 5.19079 5.17245 5.7342C5.71577 6.27752 6.36902 6.54923 7.13204 6.54923Z" fill="#585757" stroke="#585757" stroke-width="1.5" stroke-miterlimit="10"/>
<path d="M10.8625 6.54923C11.6255 6.54923 12.2787 6.27752 12.8221 5.7342C13.3655 5.19088 13.6372 4.53763 13.6372 3.77461C13.6372 3.0116 13.3655 2.35834 12.8221 1.81502C12.2788 1.2717 11.6255 1 10.8625 1C10.0995 1 9.44624 1.2717 8.90292 1.81502C8.35959 2.35834 8.08789 3.0116 8.08789 3.77461C8.08789 4.53763 8.35959 5.19079 8.90292 5.7342C9.44624 6.27752 10.0995 6.54923 10.8625 6.54923Z" stroke="#585757" stroke-width="1.5" stroke-miterlimit="10"/>
<path d="M7.1316 8.80469C3.74522 8.80469 1 9.69921 1 12.3717V14.0964C1 14.5143 1.33876 14.8531 1.75667 14.8531H12.5064C12.9243 14.8531 13.2631 14.5143 13.2631 14.0964V12.3717C13.2631 9.69921 10.518 8.80469 7.1316 8.80469Z" fill="#585757" stroke="#585757" stroke-width="1.5" stroke-miterlimit="10"/>
<path d="M11.1316 8.7998C7.74522 8.7998 5 9.69456 5 12.3678V14.0929C5 14.511 5.33876 14.8498 5.75667 14.8498H16.5064C16.9243 14.8498 17.2631 14.511 17.2631 14.0929V12.3678C17.2631 9.69456 14.518 8.7998 11.1316 8.7998Z" stroke="#585757" stroke-width="1.5" stroke-miterlimit="10"/>
</svg>
