<svg width="26" height="34" viewBox="0 0 26 34" fill="none" xmlns="http://www.w3.org/2000/svg">
<path d="M16.5002 34C14.3202 34.0005 12.1626 33.5596 10.1574 32.7039C8.15233 31.8482 6.34121 30.5954 4.83321 29.021C1.71257 25.7999 -0.0223305 21.4848 0.000217056 17C-0.0223305 12.5152 1.71257 8.20005 4.83321 4.97901C6.34121 3.40464 8.15233 2.15184 10.1574 1.29614C12.1626 0.440445 14.3202 -0.000447336 16.5002 1.99332e-06C19.7534 -0.00161727 22.9305 0.983349 25.6122 2.82495C23.2701 4.37384 21.3487 6.47952 20.0202 8.95337C18.6918 11.4272 17.9977 14.192 18.0002 17C17.9977 19.808 18.6918 22.5728 20.0202 25.0466C21.3487 27.5205 23.2701 29.6262 25.6122 31.1751C22.9305 33.0167 19.7534 34.0016 16.5002 34Z" fill="#DDDDDD"/>
</svg>
