<svg width="24" height="24" viewBox="0 0 24 24" fill="none" xmlns="http://www.w3.org/2000/svg">
<path d="M20.289 8.48726C19.821 7.38981 19.173 6.44528 18.363 5.63568C17.553 4.82609 16.599 4.18741 15.51 3.71064C14.412 3.24288 13.242 3 12 3C10.758 3 9.588 3.23388 8.49 3.71064C7.392 4.18741 6.438 4.82609 5.637 5.63568C4.827 6.44528 4.188 7.3988 3.711 8.48726C3.234 9.57571 3 10.7541 3 11.9955C3 13.2369 3.234 14.4063 3.711 15.5037C4.188 16.6012 4.827 17.5547 5.637 18.3643C6.447 19.1739 7.401 19.8126 8.49 20.2894C9.588 20.7661 10.758 21 12 21C13.242 21 14.412 20.7661 15.51 20.2894C16.608 19.8216 17.562 19.1739 18.363 18.3643C19.164 17.5547 19.812 16.6012 20.289 15.5037C20.766 14.4063 21 13.2369 21 11.9955C21 10.7541 20.766 9.58471 20.289 8.48726ZM12.936 16.0885C12.882 16.5472 12.792 16.8891 12.648 17.1049C12.504 17.3298 12.288 17.4378 12 17.4378C11.712 17.4378 11.496 17.3298 11.361 17.1049C11.217 16.8801 11.127 16.5472 11.082 16.0885C11.037 15.6297 11.01 15.036 11.001 14.3163C11.001 13.5877 11.028 13.003 11.073 12.5352C11.118 12.0765 11.217 11.7346 11.361 11.5187C11.505 11.3028 11.721 11.1949 12.009 11.1949C12.297 11.1949 12.513 11.3028 12.648 11.5187C12.783 11.7346 12.882 12.0765 12.936 12.5352C12.99 13.003 13.008 13.5967 13.008 14.3163C13.008 15.036 12.99 15.6297 12.945 16.0885H12.936ZM13.089 8.78411C12.972 8.98201 12.819 9.14393 12.63 9.26087C12.441 9.37781 12.225 9.44078 12 9.44078C11.649 9.44078 11.352 9.31484 11.1 9.05397C10.857 8.8021 10.731 8.48726 10.731 8.11844C10.731 7.87556 10.785 7.65067 10.902 7.46177C11.01 7.26387 11.163 7.11094 11.352 6.994C11.541 6.87706 11.757 6.81409 11.991 6.81409C12.225 6.81409 12.432 6.87706 12.621 6.994C12.81 7.11094 12.963 7.27286 13.08 7.46177C13.197 7.65967 13.251 7.87556 13.251 8.11844C13.251 8.36132 13.197 8.58621 13.08 8.78411H13.089Z" fill="#595757"/>
</svg>
