<svg width="19" height="19" viewBox="0 0 19 19" fill="none" xmlns="http://www.w3.org/2000/svg">
<rect x="0.5" y="0.5" width="18" height="18" rx="4" fill="#ABABAB"/>
<path d="M14.2243 3.53139C13.8585 3.62566 13.5687 3.92111 13.4843 4.28409C13.4534 4.41915 13.4562 4.63581 13.4913 4.77228C13.5729 5.08883 13.8191 5.36037 14.1244 5.47151C14.5071 5.61079 14.9053 5.52216 15.1951 5.23234C15.3991 5.02974 15.4905 4.80745 15.4905 4.51763C15.4905 4.27846 15.4258 4.08149 15.2865 3.89719C15.046 3.58064 14.6112 3.4301 14.2243 3.53139Z" fill="#F3F3F3"/>
<path d="M9.20081 5.04536C7.99791 5.1354 6.90053 5.6855 6.1211 6.59014C5.17848 7.68471 4.82254 9.16336 5.16441 10.5646C5.31495 11.1823 5.60618 11.776 6.00715 12.2811C6.15768 12.471 6.53473 12.8494 6.72466 12.9986C7.3648 13.5065 8.10765 13.8216 8.92084 13.9342C9.15157 13.9665 9.61866 13.9764 9.86346 13.9567C11.1269 13.8497 12.2425 13.2462 13.036 12.2388C13.558 11.5762 13.883 10.7391 13.9575 9.86259C13.9772 9.61779 13.9674 9.1507 13.935 8.91997C13.8225 8.10678 13.5073 7.36393 12.9994 6.72379C12.8503 6.53386 12.4719 6.15541 12.2833 6.00768C11.473 5.36754 10.4839 5.02566 9.46953 5.03833C9.35698 5.03973 9.23598 5.04255 9.20081 5.04536ZM9.94365 6.40724C10.875 6.5423 11.7079 7.09522 12.1848 7.89856C12.4845 8.40082 12.6252 8.90871 12.6252 9.49539C12.6266 9.85274 12.5957 10.068 12.4986 10.3986C12.1806 11.4862 11.2422 12.3444 10.1294 12.5681C9.80437 12.6328 9.35979 12.6454 9.06012 12.599C8.00635 12.4358 7.14111 11.7971 6.68386 10.846C6.47424 10.4085 6.38138 9.99624 6.38138 9.50242C6.38138 8.99875 6.47564 8.58794 6.69653 8.13773C7.00605 7.50181 7.50268 7.00517 8.1386 6.69566C8.50439 6.51698 8.88144 6.41428 9.29226 6.38051C9.42169 6.37066 9.7903 6.38473 9.94365 6.40724Z" fill="#F3F3F3"/>
</svg>
