<svg width="33" height="20" viewBox="0 0 33 20" fill="none" xmlns="http://www.w3.org/2000/svg">
<path d="M7.84 19.944C6.96267 19.944 6.11333 19.944 5.292 19.944C4.48933 19.944 3.76133 19.888 3.108 19.776C2.47333 19.6453 1.96933 19.4027 1.596 19.048C1.22267 18.6933 1.036 18.1707 1.036 17.48C1.036 16.752 1.232 16.2013 1.624 15.828C2.03467 15.436 2.576 15.1653 3.248 15.016C3.93867 14.8667 4.71333 14.7733 5.572 14.736C5.572 13.56 5.56267 12.552 5.544 11.712C5.52533 10.8533 5.50667 10.06 5.488 9.332C5.488 8.58533 5.488 7.81067 5.488 7.008C4.984 7.08267 4.452 7.10133 3.892 7.064C3.332 7.02667 2.80933 6.924 2.324 6.756C1.85733 6.56933 1.46533 6.29867 1.148 5.944C0.849333 5.57067 0.7 5.09467 0.7 4.516C0.7 3.788 0.998667 3.116 1.596 2.5C2.212 1.86533 3.024 1.36133 4.032 0.987999C5.04 0.595999 6.12267 0.399999 7.28 0.399999C8.43733 0.399999 9.38 0.754665 10.108 1.464C10.836 2.15467 11.2 3.18133 11.2 4.544V14.82C12.208 14.9133 13.0293 15.1467 13.664 15.52C14.3173 15.8933 14.644 16.5467 14.644 17.48C14.644 18.1707 14.4573 18.6933 14.084 19.048C13.7107 19.4027 13.1973 19.6453 12.544 19.776C11.9093 19.888 11.1813 19.944 10.36 19.944C9.55733 19.944 8.71733 19.944 7.84 19.944ZM24.2438 20C22.9932 20 21.8638 19.748 20.8558 19.244C19.8478 18.74 18.9798 18.04 18.2518 17.144C17.5425 16.2293 16.9918 15.184 16.5998 14.008C16.2265 12.8133 16.0398 11.544 16.0398 10.2C16.0398 8.93067 16.2265 7.71733 16.5998 6.56C16.9732 5.384 17.5145 4.33867 18.2238 3.424C18.9518 2.49067 19.8198 1.75333 20.8278 1.212C21.8358 0.670666 22.9745 0.399999 24.2438 0.399999C25.9052 0.399999 27.3518 0.838665 28.5838 1.716C29.8158 2.57467 30.7678 3.74133 31.4398 5.216C32.1305 6.69067 32.4758 8.352 32.4758 10.2C32.4758 11.432 32.2798 12.636 31.8878 13.812C31.5145 14.9693 30.9638 16.0147 30.2358 16.948C29.5265 17.8813 28.6678 18.628 27.6598 19.188C26.6518 19.7293 25.5132 20 24.2438 20ZM24.2438 14.764C24.9718 14.764 25.5505 14.5587 25.9798 14.148C26.4278 13.7373 26.7545 13.2053 26.9598 12.552C27.1652 11.8987 27.2678 11.208 27.2678 10.48C27.2678 9.752 27.1652 9.07067 26.9598 8.436C26.7732 7.78267 26.4558 7.26 26.0078 6.868C25.5598 6.45733 24.9718 6.252 24.2438 6.252C23.5158 6.252 22.9278 6.45733 22.4798 6.868C22.0505 7.26 21.7332 7.78267 21.5278 8.436C21.3225 9.07067 21.2198 9.752 21.2198 10.48C21.2198 11.0587 21.3132 11.684 21.4998 12.356C21.7052 13.0093 22.0225 13.5787 22.4518 14.064C22.8998 14.5307 23.4972 14.764 24.2438 14.764Z" fill="#F7546C"/>
</svg>
