<svg width="14" height="14" viewBox="0 0 14 14" fill="none" xmlns="http://www.w3.org/2000/svg">
<path d="M7.95359 2.54964L11.4536 6.04964L3.85359 13.6496L0.732593 13.9996C0.634109 14.0112 0.534283 14.0003 0.440618 13.9678C0.346954 13.9352 0.261889 13.8818 0.19182 13.8117C0.12175 13.7415 0.0684993 13.6564 0.0360707 13.5627C0.00364202 13.4689 -0.00712041 13.3691 0.00459253 13.2706L0.351593 10.1476L7.95159 2.54764L7.95359 2.54964ZM13.6186 2.02864L11.9756 0.384638C11.8537 0.262694 11.7089 0.165961 11.5496 0.0999648C11.3903 0.0339682 11.2195 0 11.0471 0C10.8747 0 10.7039 0.0339682 10.5446 0.0999648C10.3853 0.165961 10.2405 0.262694 10.1186 0.384638L8.57259 1.93064L12.0726 5.43064L13.6186 3.88464C13.7405 3.76271 13.8373 3.61796 13.9033 3.45865C13.9693 3.29933 14.0032 3.12858 14.0032 2.95614C14.0032 2.7837 13.9693 2.61294 13.9033 2.45363C13.8373 2.29432 13.7405 2.15056 13.6186 2.02864Z" fill="#999999"/>
</svg>
