<svg width="24" height="24" viewBox="0 0 24 24" fill="none" xmlns="http://www.w3.org/2000/svg">
<path d="M17.2117 7.03096C15.5294 6.18213 13.785 4.99549 12.8022 4.28524C12.3152 3.93877 11.6688 3.93877 11.1818 4.28524C10.1989 4.99549 8.4546 6.18213 6.77223 7.03096C6.34721 7.2475 6.07272 7.67192 6.04616 8.13965C5.96647 9.4129 5.91334 12.0374 6.56858 14.6618C7.25923 17.4682 10.0927 19.2005 11.3677 19.8501C11.7662 20.0493 12.2355 20.0493 12.6339 19.8501C13.909 19.2005 16.7425 17.4682 17.4331 14.6618C18.0795 12.0374 18.0352 9.42156 17.9555 8.13965C17.929 7.67192 17.6545 7.2475 17.2295 7.03096H17.2117Z" stroke="#595757" stroke-width="1.5" stroke-miterlimit="10"/>
<path d="M12.0137 4V11.7954H17.8577L17.8931 7.50795L12.0137 4Z" fill="#585757"/>
<path d="M12.0139 19.5904V11.7949H6.73659L6.70117 16.0911L12.0139 19.5904Z" fill="#585757"/>
</svg>
