<svg width="68" height="66" viewBox="0 0 68 66" fill="none" xmlns="http://www.w3.org/2000/svg">
<path d="M27.2834 2.05302C31.4142 -0.439654 36.5858 -0.439652 40.7166 2.05303L46.3821 5.4718C47.0812 5.89367 47.8184 6.24873 48.5842 6.53228L54.7894 8.83017C59.3138 10.5056 62.5382 14.5489 63.1649 19.3326L64.0243 25.8936C64.1304 26.7032 64.3125 27.5011 64.5682 28.2765L66.6406 34.5607C68.1516 39.1426 67.0008 44.1845 63.6514 47.657L59.0577 52.4197C58.4908 53.0074 57.9806 53.6472 57.5338 54.3306L53.9127 59.869C51.2725 63.9071 46.6131 66.151 41.8099 65.6974L35.2221 65.0754C34.4092 64.9986 33.5908 64.9986 32.7779 65.0754L26.1901 65.6974C21.3869 66.151 16.7275 63.9071 14.0873 59.869L10.4662 54.3306C10.0194 53.6472 9.50918 53.0074 8.94233 52.4197L4.34858 47.657C0.999206 44.1845 -0.151564 39.1426 1.35943 34.5607L3.4318 28.2765C3.68752 27.5011 3.86961 26.7032 3.97567 25.8936L4.83514 19.3326C5.4618 14.5489 8.68619 10.5056 13.2106 8.83017L19.4158 6.53228C20.1816 6.24873 20.9188 5.89367 21.6179 5.4718L27.2834 2.05302Z" fill="#DDDDDD"/>
</svg>
