<svg width="80" height="78" viewBox="0 0 80 78" fill="none" xmlns="http://www.w3.org/2000/svg">
<path d="M33.2834 2.05302C37.4142 -0.439654 42.5858 -0.439652 46.7166 2.05303L54.6209 6.8228C55.32 7.24467 56.0573 7.59973 56.823 7.88328L65.4804 11.0892C70.0048 12.7647 73.2292 16.8079 73.8558 21.5917L75.055 30.7454C75.161 31.555 75.3431 32.3529 75.5988 33.1283L78.4901 41.8958C80.0011 46.4777 78.8504 51.5196 75.501 54.9922L69.0919 61.6369C68.5251 62.2246 68.0148 62.8644 67.568 63.5479L62.516 71.2748C59.8758 75.3129 55.2164 77.5568 50.4132 77.1032L41.2221 76.2354C40.4092 76.1586 39.5908 76.1586 38.7779 76.2354L29.5868 77.1032C24.7836 77.5568 20.1242 75.3129 17.484 71.2748L12.432 63.5478C11.9852 62.8644 11.4749 62.2246 10.9081 61.6369L4.49901 54.9922C1.14964 51.5196 -0.00113142 46.4777 1.50986 41.8958L4.40117 33.1283C4.65689 32.3529 4.83899 31.555 4.94504 30.7454L6.14416 21.5917C6.77081 16.8079 9.99521 12.7647 14.5196 11.0892L23.177 7.88328C23.9427 7.59972 24.68 7.24467 25.3791 6.8228L33.2834 2.05302Z" fill="white"/>
</svg>
